<svg width="44" height="44" viewBox="0 0 44 44" fill="none" xmlns="http://www.w3.org/2000/svg">
<path d="M0 22C0 13.3765 0 9.06469 1.99509 5.92601C3.00118 4.34321 4.34321 3.00118 5.92601 1.99509C9.06469 0 13.3765 0 22 0C30.6235 0 34.9353 0 38.074 1.99509C39.6568 3.00118 40.9988 4.34321 42.0049 5.92601C44 9.06469 44 13.3765 44 22C44 30.6235 44 34.9353 42.0049 38.074C40.9988 39.6568 39.6568 40.9988 38.074 42.0049C34.9353 44 30.6235 44 22 44C13.3765 44 9.06469 44 5.92601 42.0049C4.34321 40.9988 3.00118 39.6568 1.99509 38.074C0 34.9353 0 30.6235 0 22Z" fill="url(#paint0_linear_25_689)"/>
<g clip-path="url(#clip0_25_689)">
<path d="M19.3335 23.3332C19.3335 24.0404 19.6144 24.7187 20.1145 25.2188C20.6146 25.7189 21.2929 25.9998 22.0002 25.9998C22.7074 25.9998 23.3857 25.7189 23.8858 25.2188C24.3859 24.7187 24.6668 24.0404 24.6668 23.3332C24.6668 22.6259 24.3859 21.9477 23.8858 21.4476C23.3857 20.9475 22.7074 20.6665 22.0002 20.6665C21.2929 20.6665 20.6146 20.9475 20.1145 21.4476C19.6144 21.9477 19.3335 22.6259 19.3335 23.3332Z" stroke="white" stroke-width="1.5" stroke-linecap="round" stroke-linejoin="round"/>
<path d="M16.6665 34V32.6667C16.6665 31.9594 16.9475 31.2811 17.4476 30.781C17.9477 30.281 18.6259 30 19.3332 30H24.6665C25.3737 30 26.052 30.281 26.5521 30.781C27.0522 31.2811 27.3332 31.9594 27.3332 32.6667V34" stroke="white" stroke-width="1.5" stroke-linecap="round" stroke-linejoin="round"/>
<path d="M26 12.6667C26 13.3739 26.281 14.0522 26.781 14.5523C27.2811 15.0524 27.9594 15.3333 28.6667 15.3333C29.3739 15.3333 30.0522 15.0524 30.5523 14.5523C31.0524 14.0522 31.3333 13.3739 31.3333 12.6667C31.3333 11.9594 31.0524 11.2811 30.5523 10.781C30.0522 10.281 29.3739 10 28.6667 10C27.9594 10 27.2811 10.281 26.781 10.781C26.281 11.2811 26 11.9594 26 12.6667Z" stroke="white" stroke-width="1.5" stroke-linecap="round" stroke-linejoin="round"/>
<path d="M28.6665 19.3335H31.3332C32.0404 19.3335 32.7187 19.6144 33.2188 20.1145C33.7189 20.6146 33.9998 21.2929 33.9998 22.0002V23.3335" stroke="white" stroke-width="1.5" stroke-linecap="round" stroke-linejoin="round"/>
<path d="M12.6665 12.6667C12.6665 13.3739 12.9475 14.0522 13.4476 14.5523C13.9476 15.0524 14.6259 15.3333 15.3332 15.3333C16.0404 15.3333 16.7187 15.0524 17.2188 14.5523C17.7189 14.0522 17.9998 13.3739 17.9998 12.6667C17.9998 11.9594 17.7189 11.2811 17.2188 10.781C16.7187 10.281 16.0404 10 15.3332 10C14.6259 10 13.9476 10.281 13.4476 10.781C12.9475 11.2811 12.6665 11.9594 12.6665 12.6667Z" stroke="white" stroke-width="1.5" stroke-linecap="round" stroke-linejoin="round"/>
<path d="M10 23.3335V22.0002C10 21.2929 10.281 20.6146 10.781 20.1145C11.2811 19.6144 11.9594 19.3335 12.6667 19.3335H15.3333" stroke="white" stroke-width="1.5" stroke-linecap="round" stroke-linejoin="round"/>
</g>
<defs>
<linearGradient id="paint0_linear_25_689" x1="10.4227" y1="4.77144e-05" x2="47.2112" y2="0.883159" gradientUnits="userSpaceOnUse">
<stop stop-color="#487BFF"/>
<stop offset="1" stop-color="#4627FF"/>
</linearGradient>
<clipPath id="clip0_25_689">
<rect width="32" height="32" fill="white" transform="translate(6 6)"/>
</clipPath>
</defs>
</svg>
