<svg width="44" height="44" viewBox="0 0 44 44" fill="none" xmlns="http://www.w3.org/2000/svg">
<path d="M0 22C0 13.3765 0 9.06469 1.99509 5.92601C3.00118 4.34321 4.34321 3.00118 5.92601 1.99509C9.06469 0 13.3765 0 22 0C30.6235 0 34.9353 0 38.074 1.99509C39.6568 3.00118 40.9988 4.34321 42.0049 5.92601C44 9.06469 44 13.3765 44 22C44 30.6235 44 34.9353 42.0049 38.074C40.9988 39.6568 39.6568 40.9988 38.074 42.0049C34.9353 44 30.6235 44 22 44C13.3765 44 9.06469 44 5.92601 42.0049C4.34321 40.9988 3.00118 39.6568 1.99509 38.074C0 34.9353 0 30.6235 0 22Z" fill="url(#paint0_linear_25_792)"/>
<g clip-path="url(#clip0_25_792)">
<path d="M10 17.9998C10 17.6462 10.1405 17.3071 10.3905 17.057C10.6406 16.807 10.9797 16.6665 11.3333 16.6665H32.6667C33.0203 16.6665 33.3594 16.807 33.6095 17.057C33.8595 17.3071 34 17.6462 34 17.9998V20.6665C34 21.0201 33.8595 21.3593 33.6095 21.6093C33.3594 21.8594 33.0203 21.9998 32.6667 21.9998H11.3333C10.9797 21.9998 10.6406 21.8594 10.3905 21.6093C10.1405 21.3593 10 21.0201 10 20.6665V17.9998Z" stroke="white" stroke-width="1.5" stroke-linecap="round" stroke-linejoin="round"/>
<path d="M22 16.6665V33.9998" stroke="white" stroke-width="1.5" stroke-linecap="round" stroke-linejoin="round"/>
<path d="M31.3332 22V31.3333C31.3332 32.0406 31.0522 32.7189 30.5521 33.219C30.052 33.719 29.3737 34 28.6665 34H15.3332C14.6259 34 13.9476 33.719 13.4476 33.219C12.9475 32.7189 12.6665 32.0406 12.6665 31.3333V22" stroke="white" stroke-width="1.5" stroke-linecap="round" stroke-linejoin="round"/>
<path d="M15.9998 16.6668C15.1158 16.6668 14.2679 16.3156 13.6428 15.6905C13.0177 15.0653 12.6665 14.2175 12.6665 13.3334C12.6665 12.4494 13.0177 11.6015 13.6428 10.9764C14.2679 10.3513 15.1158 10.0001 15.9998 10.0001C17.2861 9.97768 18.5465 10.6018 19.6168 11.791C20.6871 12.9802 21.5175 14.6793 21.9998 16.6668C22.4821 14.6793 23.3126 12.9802 24.3829 11.791C25.4531 10.6018 26.7136 9.97768 27.9998 10.0001C28.8839 10.0001 29.7317 10.3513 30.3569 10.9764C30.982 11.6015 31.3332 12.4494 31.3332 13.3334C31.3332 14.2175 30.982 15.0653 30.3569 15.6905C29.7317 16.3156 28.8839 16.6668 27.9998 16.6668" stroke="white" stroke-width="1.5" stroke-linecap="round" stroke-linejoin="round"/>
</g>
<defs>
<linearGradient id="paint0_linear_25_792" x1="10.4227" y1="4.77144e-05" x2="47.2112" y2="0.883159" gradientUnits="userSpaceOnUse">
<stop stop-color="#00FFA3"/>
<stop offset="1" stop-color="#5CFF94"/>
</linearGradient>
<clipPath id="clip0_25_792">
<rect width="32" height="32" fill="white" transform="translate(6 6)"/>
</clipPath>
</defs>
</svg>
