<svg width="44" height="44" viewBox="0 0 44 44" fill="none" xmlns="http://www.w3.org/2000/svg">
<path d="M0 22C0 13.3765 0 9.06469 1.99509 5.92601C3.00118 4.34321 4.34321 3.00118 5.92601 1.99509C9.06469 0 13.3765 0 22 0C30.6235 0 34.9353 0 38.074 1.99509C39.6568 3.00118 40.9988 4.34321 42.0049 5.92601C44 9.06469 44 13.3765 44 22C44 30.6235 44 34.9353 42.0049 38.074C40.9988 39.6568 39.6568 40.9988 38.074 42.0049C34.9353 44 30.6235 44 22 44C13.3765 44 9.06469 44 5.92601 42.0049C4.34321 40.9988 3.00118 39.6568 1.99509 38.074C0 34.9353 0 30.6235 0 22Z" fill="#EF5DA8"/>
<g clip-path="url(#clip0_25_806)">
<path d="M21.9998 29.6668L13.7704 33.9934L15.3424 24.8294L8.67578 18.3401L17.8758 17.0068L21.9904 8.66943L26.1051 17.0068L35.3051 18.3401L28.6384 24.8294L30.2104 33.9934L21.9998 29.6668Z" stroke="white" stroke-width="1.5" stroke-linecap="round" stroke-linejoin="round"/>
</g>
<defs>
<clipPath id="clip0_25_806">
<rect width="32" height="32" fill="white" transform="translate(6 6)"/>
</clipPath>
</defs>
</svg>
