<svg width="262" height="104" viewBox="0 0 262 104" fill="none" xmlns="http://www.w3.org/2000/svg">
<path d="M1 102.802C43.2543 89.6472 88.5384 69.559 110.922 28.7424C114.412 22.3776 120.453 5.91519 110.285 2.00471C101.363 -1.42705 85.0703 4.41743 80.2584 12.1905C67.7344 32.4216 58.146 62.1093 88.7465 71.2894C122.059 81.2831 166.561 73.2102 199.623 64.6049C215.66 60.431 234.637 54.139 248.855 45.5065C258.293 39.776 249.08 41.6869 242.064 41.6869C232.085 41.6869 209.043 41.6869 231.136 41.6869C240.112 41.6869 249.926 40.2744 257.979 37.9734C266.59 35.5132 253.541 45.6439 252.25 47.5225C248.178 53.445 243.55 63.0219 243.55 70.3344" stroke="url(#paint0_linear_385_43645)" stroke-width="2" stroke-linecap="round"/>
<defs>
<linearGradient id="paint0_linear_385_43645" x1="62.5646" y1="1.00011" x2="279.179" y2="14.2753" gradientUnits="userSpaceOnUse">
<stop stop-color="#487BFF" stop-opacity="0"/>
<stop offset="0.419402" stop-color="#4763FF" stop-opacity="0.76"/>
<stop offset="1" stop-color="#4627FF"/>
</linearGradient>
</defs>
</svg>
