<svg width="98" height="40" viewBox="0 0 98 40" fill="none" xmlns="http://www.w3.org/2000/svg">
<path d="M1.70312 38.7451C17.1829 33.926 33.7726 26.5667 41.9727 11.6137C43.2514 9.28194 45.4643 3.25099 41.7395 1.81839C38.4707 0.561173 32.502 2.70229 30.7392 5.54993C26.1511 12.9615 22.6384 23.8376 33.8488 27.2006C46.053 30.8618 62.356 27.9044 74.4682 24.7518C80.3432 23.2227 87.2953 20.9176 92.504 17.7552C95.9617 15.6558 92.5867 16.3559 90.0163 16.3559C86.3606 16.3559 77.9192 16.3559 86.0127 16.3559C89.3013 16.3559 92.8964 15.8384 95.8469 14.9954C99.0013 14.0942 94.221 17.8055 93.7479 18.4937C92.2562 20.6634 90.5605 24.1719 90.5605 26.8508" stroke="url(#paint0_linear_534_42330)" stroke-width="2" stroke-linecap="round"/>
<defs>
<linearGradient id="paint0_linear_534_42330" x1="24.2572" y1="1.45036" x2="103.613" y2="6.31369" gradientUnits="userSpaceOnUse">
<stop stop-color="#487BFF" stop-opacity="0"/>
<stop offset="0.419402" stop-color="#4763FF" stop-opacity="0.76"/>
<stop offset="1" stop-color="#4627FF"/>
</linearGradient>
</defs>
</svg>
