<svg width="88" height="36" viewBox="0 0 88 36" fill="none" xmlns="http://www.w3.org/2000/svg">
<path d="M1.21875 34.7218C15.0799 30.4066 29.9349 23.8169 37.2775 10.4274C38.4225 8.33948 40.404 2.93916 37.0687 1.65637C34.1417 0.530612 28.7972 2.44784 27.2187 4.99772C23.1103 11.6343 19.9649 21.3731 30.0031 24.3845C40.9311 27.6629 55.5294 25.0146 66.3751 22.1917C71.6358 20.8225 77.8609 18.7585 82.525 15.9267C85.6212 14.0469 82.599 14.6737 80.2974 14.6737C77.024 14.6737 69.4652 14.6737 76.7124 14.6737C79.6572 14.6737 82.8763 14.2104 85.5183 13.4555C88.3429 12.6485 84.0625 15.9718 83.6388 16.588C82.3031 18.5309 80.7847 21.6725 80.7847 24.0713" stroke="url(#paint0_linear_534_42326)" stroke-width="2" stroke-linecap="round"/>
<defs>
<linearGradient id="paint0_linear_534_42326" x1="21.4144" y1="1.32682" x2="92.4726" y2="5.68161" gradientUnits="userSpaceOnUse">
<stop stop-color="#487BFF" stop-opacity="0"/>
<stop offset="0.405521" stop-color="#487BFF"/>
<stop offset="0.499734" stop-color="#487BFF"/>
<stop offset="0.674908" stop-color="#487BFF"/>
<stop offset="1" stop-color="#4627FF"/>
</linearGradient>
</defs>
</svg>
