<svg width="87" height="36" viewBox="0 0 87 36" fill="none" xmlns="http://www.w3.org/2000/svg">
<path d="M1.03125 34.6228C14.6879 30.3587 29.3238 23.8469 36.5582 10.6158C37.6863 8.55255 39.6386 3.21611 36.3525 1.94849C33.4687 0.83605 28.2029 2.7306 26.6477 5.25031C22.5999 11.8084 19.501 21.432 29.3911 24.4078C40.1579 27.6474 54.5409 25.0305 65.2267 22.241C70.4097 20.8879 76.5431 18.8483 81.1384 16.05C84.1889 14.1924 81.2113 14.8119 78.9437 14.8119C75.7185 14.8119 68.2712 14.8119 75.4115 14.8119C78.3129 14.8119 81.4845 14.354 84.0875 13.6081C86.8705 12.8106 82.6532 16.0945 82.2357 16.7035C80.9198 18.6234 79.4238 21.7278 79.4238 24.0982" stroke="url(#paint0_linear_532_63665)" stroke-width="2" stroke-linecap="round"/>
<defs>
<linearGradient id="paint0_linear_532_63665" x1="20.9291" y1="1.62284" x2="90.9408" y2="5.90082" gradientUnits="userSpaceOnUse">
<stop stop-color="#487BFF" stop-opacity="0"/>
<stop offset="0.419402" stop-color="#4763FF" stop-opacity="0.76"/>
<stop offset="1" stop-color="#4627FF"/>
</linearGradient>
</defs>
</svg>
