<svg width="188" height="68" viewBox="0 0 188 68" fill="none" xmlns="http://www.w3.org/2000/svg">
<path d="M1.03125 38.7069C7.25756 18.8959 10.8077 8.52372 31.4312 13.1068C41.763 15.4028 45.8312 20.3094 45.8312 29.9069C45.8312 36.287 36.2312 34.854 36.2312 28.3068C36.2312 19.7633 39.6409 11.4327 46.6312 5.99574C62.9561 -6.70152 90.048 7.72396 101.831 19.5068C106.513 24.1884 107.789 37.3384 98.6312 31.9513C92.1633 28.1466 96.0827 17.025 100.231 13.1068C119.024 -4.64254 141.669 14.5441 155.253 28.129C159.818 32.6937 168.822 43.1742 170.542 49.1958C171.937 54.0764 182.494 37.969 176.32 45.9069C172.748 50.5004 165.577 57.1839 159.431 57.9069C156.467 58.2556 172.942 61.9561 175.431 63.0625C179.608 64.9187 189.257 69.9378 186.276 64.3069C183.807 59.6447 180.231 51.7242 180.231 46.7069" stroke="url(#paint0_linear_602_138035)" stroke-width="2" stroke-linecap="round"/>
<defs>
<linearGradient id="paint0_linear_602_138035" x1="0.9586" y1="40.538" x2="168.734" y2="67.2922" gradientUnits="userSpaceOnUse">
<stop stop-color="#487BFF" stop-opacity="0"/>
<stop offset="1" stop-color="#4627FF"/>
</linearGradient>
</defs>
</svg>
