<svg width="171" height="69" viewBox="0 0 171 69" fill="none" xmlns="http://www.w3.org/2000/svg">
<path d="M1.10156 67.0981C28.4187 58.5938 57.6946 45.6069 72.1653 19.2193C74.4219 15.1044 78.3269 4.46158 71.7538 1.93348C65.9854 -0.285139 55.4525 3.49329 52.3416 8.51853C44.2449 21.5978 38.0461 40.7907 57.8291 46.7256C79.3658 53.1865 108.136 47.9674 129.51 42.4041C139.878 39.7057 152.146 35.638 161.338 30.0571C167.44 26.3524 161.484 27.5878 156.948 27.5878C150.497 27.5878 135.6 27.5878 149.883 27.5878C155.686 27.5878 162.03 26.6746 167.237 25.187C172.804 23.5965 164.368 30.1459 163.533 31.3604C160.901 35.1893 157.908 41.3807 157.908 46.1082" stroke="url(#paint0_linear_385_43646)" stroke-width="2" stroke-linecap="round"/>
<defs>
<linearGradient id="paint0_linear_385_43646" x1="40.9027" y1="1.28401" x2="180.943" y2="9.86633" gradientUnits="userSpaceOnUse">
<stop stop-color="#487BFF" stop-opacity="0"/>
<stop offset="0.405521" stop-color="#487BFF"/>
<stop offset="0.499734" stop-color="#487BFF"/>
<stop offset="0.674908" stop-color="#487BFF"/>
<stop offset="1" stop-color="#4627FF"/>
</linearGradient>
</defs>
</svg>
