<svg width="256" height="292" viewBox="0 0 256 292" fill="none" xmlns="http://www.w3.org/2000/svg">
<path d="M15.8518 28.7192C12.5598 28.7821 9.27105 28.8449 5.97899 28.8979C5.0195 28.9144 4.2816 29.6787 4.24852 30.6316C1.27408 116.692 -0.135324 202.706 0.58926 288.826C0.599186 289.92 1.59173 291.142 2.78614 291.019C42.4298 286.976 82.7717 289.324 122.544 290.02C141.807 290.357 161.067 290.735 180.326 291.148C198.897 291.545 217.379 291.952 235.685 288.315C236.642 288.128 237.27 287.114 237.297 286.202C237.393 282.552 237.489 278.902 237.585 275.253C237.661 272.431 233.277 272.431 233.201 275.253C233.029 281.808 233.803 283.479 227.348 285.397C222.127 286.946 215.255 286.707 209.782 286.913C199.966 287.284 190.139 286.97 180.326 286.76C161.067 286.347 141.807 285.969 122.544 285.632C82.7683 284.938 42.4298 282.586 2.78614 286.628C3.51734 287.36 4.2519 288.09 4.9831 288.826C4.60923 244.483 4.68195 200.138 5.24441 155.799C5.51902 134.28 5.92934 112.764 6.36938 91.2518C6.59768 80.168 6.80943 69.0875 7.03442 58.0037C7.15353 52.1375 7.25275 46.2714 7.41156 40.4052C7.61339 32.9245 8.46701 32.2032 15.8518 31.7499C17.7807 31.6308 17.8171 28.6828 15.8518 28.7192Z" fill="url(#paint0_linear_25_514)"/>
<path d="M14.9443 32.2004C12.4232 34.8605 9.70349 37.2659 6.91764 39.6382C5.72655 40.6539 7.3478 42.8012 8.60838 41.8318C11.6027 39.5323 14.3256 36.9119 16.8766 34.1293C18.0577 32.839 16.1586 30.92 14.9443 32.2004Z" fill="url(#paint1_linear_25_514)"/>
<path d="M14.1852 38.2903C10.6053 41.1026 7.36622 44.3748 4.86492 48.1929C3.99806 49.5131 6.09571 51.1906 7.08829 49.9101C9.81789 46.3865 12.7063 43.101 16.1374 40.2424C17.5204 39.091 15.555 37.2117 14.1852 38.2903Z" fill="url(#paint2_linear_25_514)"/>
<path d="M15.6398 43.3311C12.0864 46.4511 8.50978 49.6671 5.3633 53.204C4.15235 54.5671 6.02504 56.4663 7.37496 55.2156C10.8556 51.9897 14.1542 48.5554 17.582 45.2765C18.8723 44.0424 16.96 42.1731 15.6398 43.3311Z" fill="url(#paint3_linear_25_514)"/>
<path d="M15.8632 50.2438C11.6513 53.3142 7.83324 56.8346 4.81579 61.1093C3.85629 62.4691 6.06645 64.1962 7.13844 62.9026C10.2948 59.0844 13.6398 55.4946 17.5605 52.4441C18.8046 51.478 17.1502 49.3075 15.8632 50.2438Z" fill="url(#paint4_linear_25_514)"/>
<path d="M14.3968 57.927C11.0948 61.186 7.66708 64.4417 4.7125 68.0282C3.54125 69.4509 5.35766 71.3467 6.7605 70.0729C10.2015 66.9529 13.2851 63.3697 16.3853 59.9155C17.5896 58.5755 15.6938 56.6433 14.3968 57.927Z" fill="url(#paint5_linear_25_514)"/>
<path d="M15.6101 64.5309C11.7258 67.5352 7.72563 70.9596 4.66186 74.8108C3.50054 76.2765 5.29713 78.1822 6.7463 76.8952C10.4718 73.5833 13.9359 69.9141 17.5787 66.4996C18.922 65.239 16.9831 63.4722 15.6101 64.5309Z" fill="url(#paint6_linear_25_514)"/>
<path d="M15.2783 71.2984C10.9506 74.425 6.59321 78.1174 3.61216 82.5972C2.68905 83.9836 4.76352 85.5452 5.90168 84.364C9.53122 80.6055 12.8763 76.784 16.9657 73.482C18.18 72.4994 16.562 70.3719 15.2783 71.2984Z" fill="url(#paint7_linear_25_514)"/>
<path d="M13.5438 78.3246C9.47756 81.4678 5.87122 85.3852 3.49233 89.9709C2.60893 91.6682 4.9845 93.0413 6.04325 91.4631C8.80263 87.3439 11.787 83.5853 15.5257 80.3065C16.912 79.0889 14.9301 77.2526 13.5438 78.3246Z" fill="url(#paint8_linear_25_514)"/>
<path d="M14.4138 83.8544C10.771 87.7487 7.19445 91.815 3.909 96.0169C2.75761 97.4859 4.66994 99.5703 6.01985 98.1311C9.67255 94.2369 13.14 90.0746 16.432 85.8727C17.5338 84.4665 15.7042 82.4781 14.4138 83.8544Z" fill="url(#paint9_linear_25_514)"/>
<path d="M14.5836 90.126C10.0806 94.3544 5.97793 99.0692 2.58992 104.237C1.56756 105.799 3.97959 107.109 5.04496 105.673C8.60171 100.882 12.3404 96.3264 16.5059 92.0484C17.7301 90.7911 15.8574 88.9283 14.5836 90.126Z" fill="url(#paint10_linear_25_514)"/>
<path d="M13.4809 98.7451C10.0432 101.868 6.58576 105.078 3.565 108.618C2.36729 110.017 4.25648 111.983 5.6097 110.666C8.95139 107.41 12.1144 103.973 15.4495 100.71C16.7365 99.4498 14.801 97.5441 13.4809 98.7451Z" fill="url(#paint11_linear_25_514)"/>
<path d="M12.6499 105.472C9.1262 109.122 5.79443 113.059 2.63471 117.022C1.46347 118.488 3.42212 120.586 4.74556 119.137C8.25269 115.302 11.6871 111.292 14.817 107.143C15.7699 105.879 13.7185 104.364 12.6499 105.472Z" fill="url(#paint12_linear_25_514)"/>
<path d="M14.5688 112.777C10.6845 116.684 6.71743 120.545 3.10774 124.711C1.87363 126.134 3.80256 128.122 5.18886 126.795C9.17573 122.984 12.8384 118.832 16.5506 114.759C17.7616 113.432 15.8492 111.49 14.5688 112.777Z" fill="url(#paint13_linear_25_514)"/>
<path d="M13.843 119.599C10.0414 123.719 6.20673 127.818 2.61028 132.119C1.43241 133.525 3.34808 135.534 4.65829 134.167C8.52935 130.111 12.1721 125.836 15.8381 121.598C17.0159 120.235 15.087 118.253 13.843 119.599Z" fill="url(#paint14_linear_25_514)"/>
<path d="M13.9708 128.34C10.0799 132.757 6.37425 137.376 2.75133 142.015C1.63964 143.441 3.56852 145.482 4.78278 144.049C8.67039 139.467 12.5084 134.799 16.1148 129.994C17.0445 128.76 14.9898 127.185 13.9708 128.34Z" fill="url(#paint15_linear_25_514)"/>
<path d="M14.8245 136.421C10.9534 140.709 7.03267 144.954 3.28402 149.348C2.10616 150.731 4.03842 152.729 5.3023 151.366C9.22962 147.128 12.9849 142.734 16.7898 138.39C17.961 137.05 16.0288 135.084 14.8245 136.421Z" fill="url(#paint16_linear_25_514)"/>
<path d="M12.6766 145.789C9.272 149.826 5.81116 153.823 2.53895 157.965C1.4438 159.355 3.31647 161.343 4.52742 159.954C8.00146 155.977 11.2935 151.838 14.6352 147.748C15.7502 146.385 13.8346 144.416 12.6766 145.789Z" fill="url(#paint17_linear_25_514)"/>
<path d="M13.536 152.387C10.095 156.357 6.79302 160.45 3.76896 164.745C2.71351 166.243 5.1222 167.564 6.18757 166.161C9.22487 162.171 12.2854 158.2 15.4881 154.339C16.6097 152.989 14.7105 151.034 13.536 152.387Z" fill="url(#paint18_linear_25_514)"/>
<path d="M13.4938 159.181C10.1687 163.34 6.75751 167.443 3.57794 171.714C2.62506 172.988 4.76571 174.649 5.79469 173.421C9.13638 169.434 12.2696 165.262 15.4757 161.163C16.5675 159.763 14.6254 157.768 13.4938 159.181Z" fill="url(#paint19_linear_25_514)"/>
<path d="M12.8327 167.498C9.64647 171.621 6.39737 175.687 3.10531 179.727C1.95392 181.137 3.90935 183.171 5.13684 181.759C8.63073 177.732 11.9194 173.523 15.0196 169.183C15.9262 167.912 13.8021 166.248 12.8327 167.498Z" fill="url(#paint20_linear_25_514)"/>
<path d="M13.581 175.965C10.2128 180.444 6.63284 184.729 3.01985 189.01C1.86845 190.377 3.77421 192.349 5.00832 190.999C8.94556 186.698 12.5387 182.072 15.9565 177.354C17.002 175.908 14.6265 174.575 13.581 175.965Z" fill="url(#paint21_linear_25_514)"/>
<path d="M14.5374 183.621C10.3884 187.836 6.48093 192.309 3.0863 197.153C2.02093 198.672 4.4528 199.999 5.53141 198.586C8.98559 194.066 12.5688 189.699 16.516 185.603C17.7699 184.306 15.8046 182.334 14.5374 183.621Z" fill="url(#paint22_linear_25_514)"/>
<path d="M14.1809 192.262C10.3892 196.02 6.95164 200.149 4.15586 204.705C3.20299 206.264 5.58182 207.614 6.58433 206.125C9.44296 201.873 12.553 197.883 16.1627 194.244C17.4332 192.96 15.4646 190.988 14.1809 192.262Z" fill="url(#paint23_linear_25_514)"/>
<path d="M12.7146 201.23C9.45562 204.8 6.45799 208.588 3.83096 212.644C2.83506 214.18 5.25369 215.559 6.26612 214.067C8.85014 210.269 11.6294 206.633 14.7064 203.218C15.9107 201.878 13.9421 199.89 12.7146 201.23Z" fill="url(#paint24_linear_25_514)"/>
<path d="M13.4393 209.143C9.82964 213.497 6.49456 218.08 3.75504 223.033C2.8551 224.654 5.26045 226.057 6.23649 224.485C9.0852 219.88 12.0597 215.383 15.4477 211.155C16.5759 209.745 14.6139 207.724 13.4393 209.143Z" fill="url(#paint25_linear_25_514)"/>
<path d="M12.856 218.781C9.58044 223.069 6.2686 227.33 3.08572 231.691C2.14938 232.971 4.31319 234.662 5.30247 233.402C8.70702 229.057 11.9858 224.621 15.2944 220.204C16.3863 218.744 13.9412 217.358 12.856 218.781Z" fill="url(#paint26_linear_25_514)"/>
<path d="M13.1736 228.829C10.0239 232.918 6.98661 237.091 4.21069 241.441C3.22141 242.99 5.62342 244.34 6.64909 242.867C9.59375 238.629 12.5516 234.404 15.665 230.288C16.7867 228.799 14.2886 227.383 13.1736 228.829Z" fill="url(#paint27_linear_25_514)"/>
<path d="M12.8063 242.303C9.48115 246.518 6.46038 251.008 3.45286 255.451C2.38418 257.026 4.87891 258.406 5.97075 256.923C9.07422 252.702 12.2372 248.457 15.0297 244.02C15.8667 242.69 13.8154 241.022 12.8063 242.303Z" fill="url(#paint28_linear_25_514)"/>
<path d="M13.4931 251.108C10.4293 255.502 7.39531 259.913 4.49035 264.416C3.45145 266.02 5.94942 267.417 7.02471 265.898C10.1183 261.521 13.0761 257.061 16.0109 252.577C17.0498 250.996 14.5551 249.583 13.4931 251.108Z" fill="url(#paint29_linear_25_514)"/>
<path d="M13.4782 259.057C11.6817 265.201 8.75348 270.664 4.65743 275.577C3.52589 276.934 5.41847 278.895 6.6228 277.546C11.1887 272.431 14.4014 266.422 16.1516 259.795C16.6082 258.068 13.9778 257.347 13.4782 259.057Z" fill="url(#paint30_linear_25_514)"/>
<path d="M14.3565 270.903C10.4259 275.902 6.88897 281.18 3.95424 286.826C3.12047 288.425 5.48946 289.831 6.38278 288.247C9.44655 282.807 12.775 277.573 16.5468 272.593C17.4964 271.343 15.3358 269.655 14.3565 270.903Z" fill="url(#paint31_linear_25_514)"/>
<path d="M20.0686 275.176C16.889 278.633 13.9708 282.621 11.7905 286.782C10.9302 288.42 13.2529 289.773 14.262 288.228C16.8096 284.324 19.387 280.536 22.2126 276.83C23.1555 275.593 21.1075 274.048 20.0686 275.176Z" fill="url(#paint32_linear_25_514)"/>
<path d="M29.0884 273.74C25.4357 277.936 22.5406 282.588 20.7242 287.862C20.1253 289.605 22.7557 290.227 23.4274 288.606C25.353 283.953 27.8344 279.603 31.1133 275.765C32.3011 274.372 30.3026 272.344 29.0884 273.74Z" fill="url(#paint33_linear_25_514)"/>
<path d="M38.0936 274.225C35.675 277.858 33.5244 281.624 31.794 285.633C31.0694 287.307 33.4516 288.806 34.3019 287.098C36.2408 283.204 38.2789 279.369 40.5849 275.681C41.5775 274.096 39.1159 272.69 38.0936 274.225Z" fill="url(#paint34_linear_25_514)"/>
<path d="M45.7997 274.272C43.7517 278.428 41.8922 282.703 40.1486 286.994C39.5398 288.489 42.0643 289.558 42.7657 288.099C44.7641 283.92 46.6665 279.662 48.3605 275.351C48.9396 273.882 46.5011 272.856 45.7997 274.272Z" fill="url(#paint35_linear_25_514)"/>
<path d="M52.5494 274.252C50.6899 277.266 48.9231 280.343 47.3945 283.539C46.6435 285.104 48.9264 286.487 49.7502 284.916C51.3946 281.776 53.0588 278.659 54.8885 275.622C55.7917 274.123 53.4625 272.77 52.5494 274.252Z" fill="url(#paint36_linear_25_514)"/>
<path d="M60.893 274.816C58.9111 278.492 57.002 282.231 55.1889 285.992C54.4147 287.6 56.7538 289.016 57.6075 287.409C59.5695 283.72 61.4521 279.964 63.242 276.189C63.9798 274.631 61.7333 273.258 60.893 274.816Z" fill="url(#paint37_linear_25_514)"/>
<path d="M68.4354 277.268C68.5214 277.261 68.6041 277.251 68.6902 277.244C68.3031 277.019 67.9126 276.798 67.5255 276.576C67.5487 276.626 66.6687 278.227 66.5231 278.558C66.0897 279.554 65.6496 280.549 65.2062 281.542C64.379 283.385 63.5254 285.218 62.7314 287.078C62.0399 288.692 64.3294 290.138 65.15 288.49C66.4668 285.85 67.6248 283.126 68.7762 280.411C69.4743 278.763 70.7614 276.97 69.8548 275.213C69.5603 274.647 68.9053 274.498 68.3329 274.594C68.2469 274.607 68.1642 274.624 68.0781 274.637C66.6058 274.885 66.93 277.413 68.4354 277.268Z" fill="url(#paint38_linear_25_514)"/>
<path d="M75.7821 275.959C73.0757 279.562 70.9052 283.774 69.7307 288.131C69.2476 289.921 71.8316 290.566 72.4603 288.886C73.9988 284.776 75.7788 281.041 78.1743 277.358C79.1668 275.83 76.8243 274.572 75.7821 275.959Z" fill="url(#paint39_linear_25_514)"/>
<path d="M83.1257 274.237C81.1008 278.502 79.0296 282.751 77.1371 287.078C76.4158 288.732 78.7881 290.204 79.6119 288.524C81.6897 284.282 83.5956 279.954 85.5443 275.65C86.2788 274.029 83.9032 272.596 83.1257 274.237Z" fill="url(#paint40_linear_25_514)"/>
<path d="M88.0687 274.553C86.0869 278.712 84.4193 283.011 83.1257 287.437C82.6128 289.197 85.2564 289.885 85.8486 288.185C87.3243 283.95 88.8991 279.768 90.6097 275.622C91.2085 274.176 88.747 273.134 88.0687 274.553Z" fill="url(#paint41_linear_25_514)"/>
<path d="M94.444 274.502C92.6739 277.893 91.0362 281.366 89.6829 284.946C89.1106 286.465 91.6681 287.567 92.3298 286.062C93.8187 282.671 95.2877 279.277 96.899 275.938C97.6864 274.303 95.2976 272.864 94.444 274.502Z" fill="url(#paint42_linear_25_514)"/>
<path d="M103.149 274.17C100.856 277.419 99.0661 281.121 97.9312 284.932C97.4151 286.669 100.012 287.331 100.614 285.671C101.915 282.084 103.496 278.792 105.478 275.533C106.395 274.028 104.135 272.774 103.149 274.17Z" fill="url(#paint43_linear_25_514)"/>
<path d="M109.623 274.54C107.658 278.266 105.726 282.101 104.068 285.976C103.39 287.563 105.59 288.985 106.464 287.371C108.465 283.662 110.259 279.761 111.953 275.9C112.634 274.352 110.451 272.969 109.623 274.54Z" fill="url(#paint44_linear_25_514)"/>
<path d="M117.406 274.691C114.693 278.224 112.318 282.241 110.485 286.3C109.75 287.928 112.04 289.364 112.93 287.733C115.104 283.759 117.37 279.908 119.736 276.051C120.672 274.529 118.432 273.357 117.406 274.691Z" fill="url(#paint45_linear_25_514)"/>
<path d="M126.297 274.254C123.693 278.38 121.275 282.648 119.227 287.078C118.486 288.68 120.792 290.092 121.625 288.485C123.875 284.141 126.145 279.829 128.6 275.601C129.467 274.109 127.21 272.805 126.297 274.254Z" fill="url(#paint46_linear_25_514)"/>
<path d="M132.162 275.955C130.458 280.136 128.662 284.306 127.163 288.563C126.643 290.043 129.082 291.105 129.724 289.646C131.583 285.397 133.165 281.017 134.816 276.686C135.451 275.018 132.817 274.347 132.162 275.955Z" fill="url(#paint47_linear_25_514)"/>
<path d="M145.742 274.187C142.205 278.171 139.558 282.759 137.92 287.832C137.354 289.576 140.004 290.244 140.633 288.579C142.337 284.051 144.66 279.911 147.677 276.126C148.752 274.776 146.933 272.844 145.742 274.187Z" fill="url(#paint48_linear_25_514)"/>
<path d="M154.441 273.026C152.231 277.552 149.977 282.078 147.996 286.71C147.294 288.346 149.6 289.811 150.451 288.146C152.743 283.657 154.778 279.025 156.843 274.432C157.564 272.824 155.235 271.401 154.441 273.026Z" fill="url(#paint49_linear_25_514)"/>
<path d="M161.582 274.965C159.752 278.984 157.856 282.988 156.222 287.094C155.626 288.579 158.121 289.635 158.819 288.189C160.685 284.318 162.3 280.321 163.977 276.364C164.659 274.756 162.33 273.327 161.582 274.965Z" fill="url(#paint50_linear_25_514)"/>
<path d="M169.228 274.621C167.888 278.78 166.479 282.902 165.05 287.029C164.444 288.768 167.098 289.413 167.759 287.776C169.391 283.74 170.747 279.555 171.849 275.346C172.295 273.645 169.764 272.963 169.228 274.621Z" fill="url(#paint51_linear_25_514)"/>
<path d="M179.432 277.999C179.941 277.586 180.458 277.182 180.977 276.785C180.246 276.219 179.515 275.657 178.783 275.091C176.279 279.15 174.227 283.789 173.169 288.448C172.765 290.217 175.276 290.887 175.872 289.192C177.414 284.805 179.065 280.639 181.195 276.504C181.933 275.074 180.203 273.748 179.002 274.806C178.515 275.243 178.022 275.67 177.523 276.09C176.186 277.235 178.099 279.061 179.432 277.999Z" fill="url(#paint52_linear_25_514)"/>
<path d="M185.342 274.985C183.079 279.095 181.219 283.555 180.094 288.113C179.661 289.854 182.232 290.556 182.774 288.851C184.144 284.54 185.686 280.421 187.681 276.355C188.442 274.803 186.192 273.443 185.342 274.985Z" fill="url(#paint53_linear_25_514)"/>
<path d="M192.691 274.703C190.14 279.044 188.155 283.941 186.841 288.795C186.355 290.585 188.972 291.253 189.581 289.552C191.225 284.96 193.068 280.539 195.056 276.086C195.761 274.511 193.604 273.148 192.691 274.703Z" fill="url(#paint54_linear_25_514)"/>
<path d="M201.145 275.319C199.093 279.716 197.062 284.189 195.596 288.821C195.03 290.611 197.644 291.196 198.329 289.576C200.126 285.315 201.71 280.973 203.563 276.735C204.275 275.11 201.912 273.671 201.145 275.319Z" fill="url(#paint55_linear_25_514)"/>
<path d="M210.152 274.25C208.111 278.363 206.258 282.628 205.044 287.061C204.557 288.838 207.181 289.519 207.777 287.816C209.216 283.683 210.672 279.614 212.551 275.653C213.312 274.052 210.95 272.636 210.152 274.25Z" fill="url(#paint56_linear_25_514)"/>
<path d="M217.908 274.531C215.069 279.084 212.836 284.013 211.615 289.254C211.208 291.008 213.812 291.735 214.318 290C215.761 285.033 217.637 280.371 220.33 275.944C221.27 274.399 218.861 273.003 217.908 274.531Z" fill="url(#paint57_linear_25_514)"/>
<path d="M223.694 276.348C221.736 279.712 220.187 283.332 219.165 287.091C218.692 288.834 221.302 289.532 221.858 287.832C223.003 284.338 224.389 281.01 226.113 277.761C226.957 276.173 224.604 274.783 223.694 276.348Z" fill="url(#paint58_linear_25_514)"/>
<path d="M230.139 276.327C228.68 279.2 227.218 282.065 225.792 284.95C225.007 286.532 227.35 287.927 228.174 286.343C229.659 283.487 231.105 280.612 232.558 277.744C233.372 276.139 230.956 274.719 230.139 276.327Z" fill="url(#paint59_linear_25_514)"/>
<path d="M29.8873 26.3172C29.8443 26.2576 29.798 26.1948 29.755 26.1353C29.6822 26.701 29.6095 27.2635 29.5367 27.8259C29.6128 27.7631 29.6922 27.7002 29.7683 27.634C29.1066 27.634 28.4448 27.634 27.7864 27.634C28.0842 27.955 27.7301 30.5258 27.7367 31.2073C27.75 32.7293 27.7401 34.2546 27.717 35.7798C27.6773 38.612 27.5548 41.4375 27.4158 44.2664C27.3265 46.1159 30.1223 46.0762 30.2712 44.2664C30.5921 40.3556 30.7344 36.4349 30.6881 32.5142C30.6649 30.5919 31.2969 27.1344 29.7683 25.6522C29.2058 25.1029 28.3555 25.136 27.7864 25.6522C27.7103 25.7183 27.6376 25.7846 27.5615 25.854C26.9626 26.4 27.1082 27.2635 27.5615 27.8259C27.6078 27.8855 27.6574 27.9451 27.7037 28.0013C28.6831 29.2222 30.8204 27.5943 29.8873 26.3172Z" fill="url(#paint60_linear_25_514)"/>
<path d="M32.7708 27.7159C32.3208 42.105 32.0197 56.4975 31.7649 70.8899C31.7319 72.7031 34.5243 72.6997 34.5773 70.8899C35.0041 56.5008 35.3845 42.1117 35.6161 27.7159C35.6459 25.8829 32.8303 25.8896 32.7708 27.7159Z" fill="url(#paint61_linear_25_514)"/>
<path d="M237.494 218.401C237.616 234.841 237.232 251.258 236.786 267.692C236.736 269.532 239.522 269.505 239.628 267.692C240.597 251.278 240.664 234.831 240.266 218.401C240.223 216.621 237.481 216.614 237.494 218.401Z" fill="url(#paint62_linear_25_514)"/>
<path d="M242.282 237.47C242 248.402 241.342 259.291 240.664 270.202C240.548 272.052 243.347 272.006 243.519 270.202C244.555 259.334 244.942 248.386 245.034 237.47C245.048 235.697 242.328 235.7 242.282 237.47Z" fill="url(#paint63_linear_25_514)"/>
<path d="M254.035 33.5021C241.936 33.0555 229.806 33.0025 217.7 33.0124C215.834 33.0157 215.837 35.8678 217.7 35.9075C229.803 36.1854 241.932 36.3938 254.035 36.2119C255.782 36.1821 255.776 33.565 254.035 33.5021Z" fill="url(#paint64_linear_25_514)"/>
<path d="M251.519 38.5042C229.246 37.0815 206.913 36.5587 184.596 36.519C182.743 36.5157 182.743 39.3611 184.596 39.3942C206.913 39.778 229.213 40.5257 251.519 41.2238C253.28 41.2768 253.253 38.6134 251.519 38.5042Z" fill="url(#paint65_linear_25_514)"/>
<path d="M243.721 27.7149C243.46 36.4827 243.112 45.2241 242.484 53.9754C242.351 55.8282 245.167 55.7819 245.349 53.9754C246.219 45.2539 246.642 36.4794 246.427 27.7149C246.384 25.9713 243.771 25.9713 243.721 27.7149Z" fill="url(#paint66_linear_25_514)"/>
<path d="M236.481 32.0342C236.233 41.874 235.753 51.7005 235.323 61.5337C235.244 63.3402 237.986 63.3104 238.115 61.5337C238.82 51.7138 239.125 41.874 239.313 32.0342C239.346 30.2111 236.527 30.2111 236.481 32.0342Z" fill="url(#paint67_linear_25_514)"/>
<path d="M25.3937 229.558C24.7353 244.414 24.3151 259.299 24.0603 274.165C24.0305 276.028 26.8726 276.018 26.9454 274.165C27.5244 259.309 27.9413 244.427 28.1233 229.558C28.1431 227.795 25.4698 227.808 25.3937 229.558Z" fill="url(#paint68_linear_25_514)"/>
<path d="M29.9116 245.4C29.4087 253.668 28.8926 261.936 28.4195 270.207C28.3136 272.024 31.0928 271.994 31.2318 270.207C31.867 261.949 32.3203 253.678 32.6512 245.4C32.7207 243.629 30.0175 243.649 29.9116 245.4Z" fill="url(#paint69_linear_25_514)"/>
<path d="M16.9691 266.767C16.9459 266.72 16.9227 266.674 16.8963 266.628C16.7309 267.26 16.5654 267.892 16.4 268.527C17.161 267.945 21.8426 268.375 22.6962 268.378C24.9394 268.385 27.1794 268.448 29.4193 268.553C34.5146 268.802 39.58 269.344 44.629 270.089C46.4388 270.357 47.2461 267.601 45.3966 267.296C39.3617 266.304 33.3003 265.632 27.1794 265.48C24.013 265.397 17.29 264.239 14.7159 266.347C14.2428 266.734 14.2196 267.531 14.5009 268.027C14.524 268.074 14.5505 268.12 14.5769 268.163C15.4537 269.725 17.7863 268.345 16.9691 266.767Z" fill="url(#paint70_linear_25_514)"/>
<path d="M46.8777 56.1368C47.1921 74.0298 46.6726 91.8929 45.3459 109.743C45.2136 111.53 47.9861 111.513 48.1284 109.743C49.5511 91.8863 50.0904 74.043 49.7628 56.1368C49.7298 54.284 46.848 54.2774 46.8777 56.1368Z" fill="url(#paint71_linear_25_514)"/>
<path d="M79.5187 209.113C76.8785 209.567 74.2316 210 71.5979 210.5C69.8345 210.834 70.6087 213.428 72.3324 213.163C74.9826 212.756 77.6229 212.28 80.2665 211.827C82.0465 211.522 81.2921 208.809 79.5187 209.113Z" fill="url(#paint72_linear_25_514)"/>
<path d="M76.6392 223.864C72.927 224.598 69.2081 225.313 65.5025 226.094C63.7224 226.471 64.49 229.131 66.2502 228.807C69.9757 228.118 73.688 227.367 77.4035 226.636C79.2166 226.279 78.4523 223.506 76.6392 223.864Z" fill="url(#paint73_linear_25_514)"/>
<path d="M200.077 218.532C201.745 219.273 203.409 220.03 205.09 220.748C206.678 221.423 208.091 219.14 206.473 218.383C204.822 217.608 203.148 216.871 201.487 216.12C199.859 215.385 198.44 217.804 200.077 218.532Z" fill="url(#paint74_linear_25_514)"/>
<path d="M202.559 234.878C204.001 235.229 205.441 235.59 206.886 235.924C208.614 236.318 209.341 233.727 207.621 233.26C206.188 232.873 204.749 232.516 203.313 232.145C201.543 231.692 200.789 234.448 202.559 234.878Z" fill="url(#paint75_linear_25_514)"/>
<path d="M195.431 252.539C196.881 254.193 198.532 255.573 200.418 256.705C202.009 257.658 203.405 255.226 201.863 254.23C200.226 253.174 198.796 251.924 197.516 250.455C196.269 249.022 194.187 251.116 195.431 252.539Z" fill="url(#paint76_linear_25_514)"/>
<path d="M158.389 256.192C159.368 258.597 160.334 261.009 161.37 263.395C162.015 264.884 164.602 263.812 164.017 262.28C163.133 259.97 162.184 257.691 161.251 255.401C160.536 253.661 157.668 254.418 158.389 256.192Z" fill="url(#paint77_linear_25_514)"/>
<path d="M127.705 255.101C127.394 257.433 126.782 259.696 126.031 261.923C125.442 263.673 128.102 264.325 128.754 262.674C129.67 260.355 130.266 257.959 130.63 255.498C130.944 253.37 127.993 252.947 127.705 255.101Z" fill="url(#paint78_linear_25_514)"/>
<path d="M103.984 255.799C102.29 257.593 100.903 259.574 100.013 261.884C99.3978 263.479 101.919 264.471 102.733 263.032C103.752 261.232 104.817 259.571 106.263 258.079C107.712 256.587 105.41 254.287 103.984 255.799Z" fill="url(#paint79_linear_25_514)"/>
<path d="M86.6979 251.857C83.9286 252.694 81.3148 253.842 78.84 255.337C77.2949 256.27 78.6746 258.639 80.2528 257.756C82.5556 256.472 84.9576 255.46 87.4887 254.728C89.3283 254.196 88.5375 251.297 86.6979 251.857Z" fill="url(#paint80_linear_25_514)"/>
<path d="M133.894 272.139C95.1238 271.974 56.251 271.438 17.4874 272.646C17.8646 190.43 18.8208 108.191 18.4932 25.9725C29.6167 26.3199 40.7469 26.5912 51.8804 26.8195C55.0169 32.3911 58.223 37.9297 61.6077 43.3128C62.6631 44.9936 65.2041 43.5114 64.2678 41.7578C61.6011 36.7486 58.7557 31.7989 55.8474 26.8889C112.6 27.9841 169.465 27.7558 226.221 27.8517C225.152 29.6814 224.156 31.5408 223.326 33.4367C222.548 35.2035 224.881 36.6824 225.966 34.9818C227.475 32.6161 228.927 30.2372 230.386 27.8617C237.821 27.8782 245.255 27.8947 252.686 27.9245C250.033 109.349 249.93 190.923 250.251 272.381C250.251 272.603 250.301 272.791 250.37 272.963C211.583 271.756 172.701 272.305 133.894 272.139ZM42.527 15.3948C39.4764 14.8224 37.66 12.1557 38.4441 9.10516C39.1885 6.21014 42.077 3.44418 45.2499 4.17868C49.5247 5.16464 50.7554 10.7231 47.1259 12.6718C46.2657 12.0631 45.0249 12.7215 44.9091 13.7174C44.5485 14.1938 44.618 14.8853 45.0018 15.3915C44.211 15.5239 43.3938 15.5603 42.527 15.3948ZM243.806 9.70074C247.598 14.6074 239.263 17.8896 237.149 13.1152C236.937 12.6454 236.55 12.4568 236.14 12.4436C236.183 11.4444 236.451 10.4518 237.073 9.56177C238.827 7.04391 242.016 7.3847 243.806 9.70074ZM252.848 273.446C253.113 273.201 253.292 272.851 253.292 272.381C252.891 190.546 254.317 108.774 255.403 26.9518C255.409 26.3364 255.075 25.9526 254.648 25.7739C254.46 25.2048 253.977 24.7417 253.199 24.7351C246.297 24.6656 239.389 24.5795 232.484 24.4935C233.936 22.1775 235.435 19.8813 237.027 17.6314C237.05 17.5984 237.07 17.5686 237.093 17.5355C237.103 17.519 237.113 17.5024 237.126 17.4859C239.022 18.7068 241.583 18.9714 243.763 18.1741C248.018 16.619 249.086 11.7289 246.635 8.1192C244.087 4.37717 238.83 3.2258 235.429 6.51453C232.712 9.13828 232.064 13.5817 233.979 16.7778C232.021 19.2229 230.102 21.7772 228.338 24.4439C170.087 23.7094 111.73 22.6043 53.4718 22.9252C52.2509 20.897 51.0334 18.8722 49.8059 16.8539C50.9639 15.9771 51.9134 14.839 52.4263 13.37C52.6844 12.6354 52.3337 12.0631 51.801 11.7587C52.9391 8.8074 52.2344 5.05875 49.4585 2.81882C45.0448 -0.744568 39.0198 1.11823 36.3398 5.81973C33.7955 10.2764 35.0991 15.9507 39.9991 18.0252C42.1994 18.9582 44.8165 19.0211 47.1193 18.2766C47.9795 19.8317 48.8398 21.3834 49.7066 22.9385C39.0264 23.0079 28.3529 23.1204 17.6826 23.3024C16.8654 22.9682 15.7206 23.3686 15.7074 24.5233C14.6023 107.358 14.8173 190.228 14.4402 273.072C14.4369 273.231 14.4865 273.357 14.5229 273.493C14.2218 274.26 14.6023 275.302 15.6842 275.309C94.3661 275.921 173.147 273.615 251.816 276.1C253.361 276.146 253.695 274.313 252.848 273.446Z" fill="url(#paint81_linear_25_514)"/>
<path d="M226.734 38.4525C222.731 39.5278 218.734 38.962 215.184 36.8246C213.622 35.8817 212.216 38.3069 213.758 39.2664C217.926 41.8537 222.767 42.532 227.488 41.1887C229.245 40.6924 228.504 37.9793 226.734 38.4525Z" fill="url(#paint82_linear_25_514)"/>
<path d="M71.1704 42.7046C69.2548 45.9371 66.4127 48.5046 62.9287 49.9472C61.2215 50.6552 61.8898 53.451 63.7161 52.7959C68.0372 51.2475 71.5543 48.2499 73.6089 44.1307C74.4162 42.5161 72.1068 41.1264 71.1704 42.7046Z" fill="url(#paint83_linear_25_514)"/>
<path d="M188.232 158.29C185.899 161.083 183.567 163.872 181.234 166.661C180.609 167.409 181.681 168.491 182.309 167.74C184.645 164.947 186.978 162.158 189.31 159.369C189.936 158.621 188.864 157.539 188.232 158.29Z" fill="url(#paint84_linear_25_514)"/>
<path d="M192.515 158.665C189.101 162.407 186.1 166.454 183.523 170.811C183.02 171.655 184.337 172.423 184.836 171.579C187.351 167.334 190.266 163.39 193.591 159.744C194.252 159.019 193.177 157.941 192.515 158.665Z" fill="url(#paint85_linear_25_514)"/>
<path d="M200.707 155.071C195.618 161.195 190.864 167.568 186.45 174.195C185.904 175.012 187.224 175.776 187.767 174.962C192.108 168.444 196.779 162.171 201.782 156.146C202.404 155.399 201.332 154.313 200.707 155.071Z" fill="url(#paint86_linear_25_514)"/>
<path d="M202.978 158.382C199.832 162.65 196.688 166.919 193.545 171.187C191.332 174.188 187.805 177.486 187.845 181.447C187.854 182.426 189.376 182.426 189.366 181.447C189.327 177.404 194.243 172.791 196.5 169.728C199.097 166.201 201.694 162.677 204.292 159.15C204.874 158.359 203.554 157.598 202.978 158.382Z" fill="url(#paint87_linear_25_514)"/>
<path d="M207.467 160.639C201.948 167.445 196.942 174.615 192.472 182.152C191.972 182.995 193.289 183.763 193.789 182.919C198.193 175.495 203.106 168.421 208.545 161.714C209.157 160.96 208.085 159.878 207.467 160.639Z" fill="url(#paint88_linear_25_514)"/>
<path d="M209.819 164.164C204.506 171.036 199.642 178.209 195.242 185.697C194.742 186.544 196.059 187.311 196.555 186.468C200.889 179.093 205.664 172.009 210.895 165.243C211.487 164.475 210.418 163.39 209.819 164.164Z" fill="url(#paint89_linear_25_514)"/>
<path d="M212.318 166.962C207.835 173.318 203.583 179.822 199.556 186.476C199.05 187.316 200.364 188.084 200.873 187.247C204.9 180.593 209.151 174.085 213.631 167.729C214.197 166.925 212.877 166.164 212.318 166.962Z" fill="url(#paint90_linear_25_514)"/>
<path d="M213.263 170.981C209.686 176.9 206.109 182.816 202.533 188.735C202.027 189.576 203.343 190.34 203.85 189.503C207.426 183.584 211 177.668 214.576 171.749C215.086 170.909 213.769 170.144 213.263 170.981Z" fill="url(#paint91_linear_25_514)"/>
<path d="M216.386 172.941C212.75 178.751 209.306 184.676 206.06 190.715C205.593 191.578 206.91 192.349 207.373 191.485C210.622 185.444 214.063 179.522 217.703 173.708C218.222 172.875 216.906 172.11 216.386 172.941Z" fill="url(#paint92_linear_25_514)"/>
<path d="M217.04 177.563C214.619 182.506 212.197 187.449 209.775 192.389C209.345 193.266 210.658 194.04 211.088 193.16C213.51 188.217 215.932 183.274 218.354 178.334C218.784 177.457 217.471 176.683 217.04 177.563Z" fill="url(#paint93_linear_25_514)"/>
<path d="M220.054 181.818C217.794 186.252 215.537 190.685 213.278 195.119C212.834 195.992 214.148 196.763 214.591 195.89C216.851 191.456 219.111 187.023 221.371 182.589C221.814 181.716 220.5 180.945 220.054 181.818Z" fill="url(#paint94_linear_25_514)"/>
<path d="M224.181 184.667C222.54 188.167 220.899 191.668 219.258 195.168C218.844 196.052 220.155 196.826 220.571 195.939C222.212 192.439 223.857 188.935 225.498 185.434C225.912 184.554 224.598 183.78 224.181 184.667Z" fill="url(#paint95_linear_25_514)"/>
<path d="M145.815 55.0423C137.306 63.1781 129.484 71.9559 122.354 81.3291C121.762 82.1067 123.082 82.8677 123.671 82.0968C130.718 72.8327 138.477 64.1641 146.891 56.1176C147.602 55.4393 146.523 54.364 145.815 55.0423Z" fill="url(#paint96_linear_25_514)"/>
<path d="M152.615 57.9041C153.548 57.0372 154.485 56.1671 155.418 55.3002C155.057 54.9396 154.7 54.5822 154.339 54.2216C143.202 66.7612 132.062 79.3008 120.926 91.8404C120.277 92.5716 121.349 93.6536 122.004 92.919C133.141 80.3794 144.278 67.8398 155.418 55.3002C156.066 54.569 155.06 53.55 154.339 54.2216C153.406 55.0918 152.473 55.9586 151.54 56.8288C150.819 57.4971 151.901 58.5724 152.615 57.9041Z" fill="url(#paint97_linear_25_514)"/>
<path d="M159.387 56.4314C147.873 69.5434 136.362 82.6554 124.848 95.7674C124.206 96.5019 125.278 97.5838 125.927 96.846C137.437 83.734 148.951 70.622 160.465 57.51C161.107 56.7754 160.035 55.6935 159.387 56.4314Z" fill="url(#paint98_linear_25_514)"/>
<path d="M165.526 56.6507C152.299 71.8472 139.071 87.0436 125.843 102.24C125.204 102.975 126.276 104.056 126.921 103.315C140.149 88.1189 153.377 72.9225 166.602 57.7294C167.244 56.9915 166.172 55.9096 165.526 56.6507Z" fill="url(#paint99_linear_25_514)"/>
<path d="M169.015 59.6737C157.25 74.9098 144.585 89.418 131.099 103.149C130.411 103.85 131.489 104.929 132.177 104.227C145.756 90.3974 158.484 75.78 170.332 60.4446C170.931 59.667 169.608 58.9094 169.015 59.6737Z" fill="url(#paint100_linear_25_514)"/>
<path d="M169.412 67.5914C156.608 84.141 143.076 100.108 128.852 115.46C128.187 116.178 129.262 117.257 129.931 116.536C144.154 101.187 157.683 85.2196 170.491 68.67C171.083 67.9024 170.011 66.8171 169.412 67.5914Z" fill="url(#paint101_linear_25_514)"/>
<path d="M172.022 76.1012C160.402 88.9584 147.601 101.144 137.272 115.096C136.686 115.884 138.01 116.645 138.585 115.864C148.835 102.024 161.57 89.9345 173.101 77.1765C173.756 76.4519 172.684 75.37 172.022 76.1012Z" fill="url(#paint102_linear_25_514)"/>
<path d="M167.252 86.1386C158.391 97.9238 149.054 109.335 139.264 120.359C138.615 121.091 139.687 122.173 140.339 121.438C150.215 110.315 159.628 98.7973 168.568 86.9095C169.157 86.1253 167.834 85.3644 167.252 86.1386Z" fill="url(#paint103_linear_25_514)"/>
<path d="M163.348 101.23C157.84 107.503 152.331 113.779 146.825 120.053C146.18 120.787 147.252 121.869 147.901 121.131C153.409 114.855 158.918 108.582 164.424 102.305C165.069 101.571 163.997 100.492 163.348 101.23Z" fill="url(#paint104_linear_25_514)"/>
<path d="M169.651 116.358C167.49 121.305 165.326 126.248 163.166 131.194C162.776 132.084 164.089 132.858 164.479 131.962C166.643 127.019 168.804 122.072 170.968 117.129C171.358 116.239 170.045 115.462 169.651 116.358Z" fill="url(#paint105_linear_25_514)"/>
<path d="M174.712 120.4C174.794 120.331 174.877 120.261 174.96 120.192C174.652 120.232 174.344 120.271 174.037 120.311C174.033 120.311 168.766 132.06 168.283 133.155C167.889 134.045 169.199 134.823 169.596 133.926C171.211 130.277 172.826 126.627 174.44 122.974C174.937 121.856 176.409 119.825 174.804 118.998C174.48 118.829 174.156 118.888 173.884 119.117C173.798 119.186 173.716 119.256 173.633 119.322C172.879 119.95 173.961 121.022 174.712 120.4Z" fill="url(#paint106_linear_25_514)"/>
<path d="M176.202 122.795C174.743 126.451 173.284 130.11 171.825 133.77C171.464 134.68 172.937 135.073 173.294 134.173C174.753 130.514 176.212 126.858 177.671 123.199C178.032 122.289 176.56 121.895 176.202 122.795Z" fill="url(#paint107_linear_25_514)"/>
<path d="M180.627 122.834C179.105 126.715 177.464 130.54 175.704 134.319C175.294 135.202 176.607 135.976 177.021 135.086C178.834 131.189 180.524 127.242 182.096 123.241C182.453 122.328 180.981 121.931 180.627 122.834Z" fill="url(#paint108_linear_25_514)"/>
<path d="M183.224 125.902C182.705 128.731 181.798 131.398 180.458 133.945C180.002 134.812 181.315 135.583 181.775 134.713C183.171 132.056 184.151 129.26 184.693 126.306C184.869 125.346 183.4 124.936 183.224 125.902Z" fill="url(#paint109_linear_25_514)"/>
<path d="M186.423 127.893C185.622 130.375 184.822 132.856 184.021 135.341C183.72 136.274 185.189 136.674 185.49 135.745C186.291 133.263 187.091 130.778 187.892 128.297C188.193 127.364 186.724 126.96 186.423 127.893Z" fill="url(#paint110_linear_25_514)"/>
<path d="M189.569 131.233C188.438 133.681 187.303 136.13 186.171 138.575C185.764 139.461 187.074 140.236 187.488 139.346C188.62 136.897 189.751 134.449 190.886 132C191.293 131.117 189.979 130.343 189.569 131.233Z" fill="url(#paint111_linear_25_514)"/>
<path d="M192.182 135.101C191.017 137.854 189.856 140.61 188.691 143.362C188.314 144.256 189.625 145.033 190.005 144.133C191.17 141.377 192.334 138.624 193.499 135.868C193.876 134.975 192.562 134.198 192.182 135.101Z" fill="url(#paint112_linear_25_514)"/>
<path d="M196.25 136.927C194.734 141.843 192.984 146.667 190.992 151.408C190.612 152.312 192.087 152.705 192.461 151.815C194.45 147.071 196.203 142.247 197.719 137.33C198.007 136.394 196.538 135.99 196.25 136.927Z" fill="url(#paint113_linear_25_514)"/>
<path d="M199.234 142.143C196.554 146.92 194.579 151.959 193.305 157.289C193.077 158.242 194.546 158.649 194.774 157.696C196.018 152.492 197.931 147.582 200.551 142.914C201.031 142.057 199.714 141.289 199.234 142.143Z" fill="url(#paint114_linear_25_514)"/>
<path d="M202.155 149.701C200.59 152.679 198.761 155.485 196.643 158.098C196.031 158.853 197.103 159.938 197.718 159.177C199.919 156.457 201.841 153.566 203.472 150.469C203.925 149.602 202.612 148.831 202.155 149.701Z" fill="url(#paint115_linear_25_514)"/>
<path d="M135.736 123.49C136.182 123.232 136.629 122.974 137.076 122.716C136.791 122.346 136.503 121.972 136.215 121.598C134.389 125.737 132.473 129.83 130.465 133.883C130.032 134.76 131.345 135.531 131.778 134.654C133.787 130.601 135.706 126.505 137.532 122.369C137.797 121.77 137.363 121.088 136.672 121.247C135.795 121.452 135.269 121.76 134.66 122.415C133.992 123.13 135.067 124.212 135.736 123.49Z" fill="url(#paint116_linear_25_514)"/>
<path d="M141.239 121.991C140.21 125.382 138.98 128.687 137.52 131.92C137.12 132.803 138.43 133.581 138.834 132.687C140.346 129.339 141.64 125.915 142.708 122.398C142.993 121.458 141.521 121.054 141.239 121.991Z" fill="url(#paint117_linear_25_514)"/>
<path d="M147.033 119.22C145.402 123.779 143.77 128.338 142.136 132.897C141.805 133.821 143.278 134.221 143.605 133.301C145.24 128.742 146.871 124.183 148.502 119.623C148.833 118.7 147.364 118.3 147.033 119.22Z" fill="url(#paint118_linear_25_514)"/>
<path d="M154.187 116.101C152.294 121.842 150.405 127.582 148.512 133.323C148.205 134.256 149.677 134.656 149.981 133.73C151.874 127.989 153.763 122.249 155.656 116.508C155.963 115.575 154.491 115.175 154.187 116.101Z" fill="url(#paint119_linear_25_514)"/>
<path d="M160.361 115.758C159.004 121.889 156.787 127.65 153.667 133.105C153.181 133.956 154.494 134.727 154.981 133.873C158.16 128.318 160.447 122.415 161.83 116.162C162.041 115.209 160.572 114.799 160.361 115.758Z" fill="url(#paint120_linear_25_514)"/>
<path d="M165.962 115.324C163.954 120.277 161.945 125.234 159.934 130.19C159.567 131.1 161.039 131.494 161.403 130.594C163.414 125.641 165.423 120.684 167.431 115.728C167.798 114.818 166.326 114.425 165.962 115.324Z" fill="url(#paint121_linear_25_514)"/>
<path d="M114.65 122.824C113.317 126.695 111.983 130.57 110.65 134.444C110.329 135.374 111.801 135.771 112.119 134.848C113.452 130.977 114.786 127.102 116.119 123.228C116.44 122.298 114.971 121.901 114.65 122.824Z" fill="url(#paint122_linear_25_514)"/>
<path d="M121.677 118.083C120.148 123.688 118.616 129.29 117.084 134.895C116.826 135.841 118.295 136.244 118.554 135.298C120.085 129.697 121.617 124.092 123.146 118.487C123.404 117.541 121.935 117.137 121.677 118.083Z" fill="url(#paint123_linear_25_514)"/>
<path d="M127.903 118.068C126.543 123.113 124.955 128.083 123.142 132.986C122.801 133.906 124.273 134.303 124.611 133.39C126.424 128.49 128.012 123.52 129.372 118.471C129.627 117.525 128.157 117.121 127.903 118.068Z" fill="url(#paint124_linear_25_514)"/>
<path d="M108.868 123.672C107.105 127.199 105.609 130.832 104.385 134.581C104.077 135.514 105.549 135.914 105.851 134.987C107.038 131.361 108.478 127.851 110.181 124.44C110.618 123.566 109.305 122.795 108.868 123.672Z" fill="url(#paint125_linear_25_514)"/>
<path d="M103.257 125.823C102.013 129.122 100.772 132.421 99.5317 135.716C99.1843 136.636 100.657 137.033 101.001 136.123C102.241 132.824 103.482 129.526 104.726 126.23C105.07 125.31 103.598 124.913 103.257 125.823Z" fill="url(#paint126_linear_25_514)"/>
<path d="M97.0267 130.554C96.1631 132.867 95.5477 135.229 95.1771 137.668C95.0315 138.627 96.5005 139.041 96.6461 138.075C97.0167 135.636 97.6321 133.27 98.4957 130.961C98.8398 130.041 97.3674 129.644 97.0267 130.554Z" fill="url(#paint127_linear_25_514)"/>
<path d="M48.515 191.856C47.4662 192.319 46.9369 193.08 46.9236 194.145C46.8442 194.502 46.7681 194.86 46.6887 195.217C46.414 196.471 46.1361 197.722 45.8549 198.976C45.3387 201.302 44.8127 203.624 44.2833 205.947C44.0649 206.9 45.534 207.307 45.7524 206.351C46.4869 203.135 47.2114 199.919 47.9195 196.696C48.2602 195.151 49.4017 192.729 48.6904 191.2C48.5382 190.876 48.1412 190.797 47.8302 190.85C47.7376 190.866 47.6449 190.883 47.5522 190.899C47.2247 190.956 46.9964 191.323 46.9931 191.634C46.9931 191.707 46.9898 191.783 46.9898 191.856C46.9832 192.838 48.5051 192.838 48.515 191.856Z" fill="url(#paint128_linear_25_514)"/>
<path d="M53.6686 184.045C51.6173 190.586 50.8001 197.292 51.2203 204.134C51.2799 205.104 52.7753 205.12 52.7422 204.134C52.7257 203.645 52.7125 203.158 52.6959 202.669C52.6662 201.689 51.1409 201.686 51.1739 202.669C51.1872 203.158 51.2038 203.645 51.2203 204.134C51.7265 204.134 52.236 204.134 52.7422 204.134C52.3286 197.415 53.1227 190.877 55.1377 184.452C55.4321 183.512 53.9598 183.112 53.6686 184.045Z" fill="url(#paint129_linear_25_514)"/>
<path d="M60.2671 171.74C60.5782 171.369 60.8892 170.999 61.2002 170.625C60.7767 170.38 60.3532 170.132 59.9297 169.884C58.1629 179.839 56.7402 189.844 55.6583 199.896C55.5557 200.869 57.0776 200.862 57.1835 199.896C58.2489 189.98 59.6551 180.111 61.3954 170.291C61.5145 169.619 60.6609 168.908 60.1249 169.549C59.8139 169.92 59.4995 170.291 59.1885 170.661C58.5632 171.409 59.6352 172.491 60.2671 171.74Z" fill="url(#paint130_linear_25_514)"/>
<path d="M65.1652 164.403C63.5241 175.805 62.2205 187.249 61.2676 198.73C61.1882 199.706 62.7102 199.703 62.793 198.73C63.7326 187.385 65.013 176.076 66.6342 164.81C66.7732 163.851 65.3075 163.437 65.1652 164.403Z" fill="url(#paint131_linear_25_514)"/>
<path d="M71.3162 155.355C69.2351 168.166 67.8388 181.063 67.1473 194.023C67.0944 195.002 68.6197 194.999 68.6693 194.023C69.3575 181.199 70.724 168.438 72.7852 155.759C72.9407 154.8 71.4717 154.389 71.3162 155.355Z" fill="url(#paint132_linear_25_514)"/>
<path d="M77.7438 149.245C75.8976 163.604 74.4948 178.01 73.5353 192.459C73.4691 193.435 74.9943 193.431 75.0605 192.459C76.02 178.01 77.4228 163.604 79.2657 149.245C79.3915 148.276 77.8662 148.282 77.7438 149.245Z" fill="url(#paint133_linear_25_514)"/>
<path d="M84.7454 141.032C83.1176 158.26 82.5121 175.554 82.9257 192.851C82.9521 193.831 84.4741 193.834 84.451 192.851C84.0341 175.554 84.6429 158.26 86.2707 141.032C86.3633 140.056 84.838 140.062 84.7454 141.032Z" fill="url(#paint134_linear_25_514)"/>
<path d="M90.9035 135.911C90.5396 151.624 90.7513 167.34 91.5388 183.039C91.5884 184.015 93.1104 184.019 93.0607 183.039C92.2733 167.34 92.0615 151.624 92.4287 135.911C92.4519 134.929 90.9267 134.929 90.9035 135.911Z" fill="url(#paint135_linear_25_514)"/>
<path d="M135.535 57.9663C126.622 61.9929 123.65 71.3 122.155 80.3159C120.448 90.5991 119.713 101.792 124.547 111.394C128.411 119.063 136.078 125.028 144.968 124.827C154.741 124.605 161.127 116.654 165.461 108.777C170.947 98.8077 174.686 87.6246 175.354 76.2265C175.837 67.9781 175.41 57.7479 167.824 52.6791C153.348 43.0147 124.56 56.9175 123.985 74.4762C123.942 75.8725 125.867 75.9849 126.301 74.7905C129.427 66.1452 135.578 61.1028 143.737 57.3773C151.052 54.039 160.988 51.5112 167.238 58.0821C173.054 64.1997 171.539 76.1934 170.126 83.8363C168.727 91.4262 165.934 98.7713 162.345 105.584C158.748 112.399 153.514 120.32 144.968 120.661C135.211 121.048 128.134 112.476 125.801 103.837C123.717 96.1277 124.564 87.9621 125.765 80.1836C127.002 72.1735 129.239 64.2559 136.6 59.786C137.781 59.0681 136.749 57.4204 135.535 57.9663Z" fill="url(#paint136_linear_25_514)"/>
<path d="M127.947 112.698C113.088 115.143 98.97 123.491 88.7696 134.369C76.9976 146.926 66.2247 160.944 55.6967 174.552C51.0878 180.518 46.5683 186.682 43.0446 193.365C41.1223 197.005 38.3299 202.868 40.6889 206.957C42.7965 210.606 46.7006 210.067 50.1251 208.856C57.9267 206.093 66.1387 201.882 72.7625 196.952C74.3903 195.737 73.0239 193.236 71.1446 194.186C65.1528 197.216 59.4553 200.72 53.3178 203.483C49.2747 205.306 44.464 207.771 43.9511 201.349C43.7129 198.338 46.4988 194.656 47.9745 192.148C54.7439 180.65 63.5844 170.486 71.9949 160.183C79.7668 150.661 87.1682 140.275 96.333 132.02C105.928 123.382 117.677 120.543 128.734 114.567C129.823 113.978 129.022 112.519 127.947 112.698Z" fill="url(#paint137_linear_25_514)"/>
<path d="M94.1692 156.295C99.4696 155.663 97.4679 169.88 96.8095 172.467C95.496 177.622 93.0874 182.482 88.7762 185.708C81.9307 190.827 73.1232 192.68 66.2512 197.808C65.1395 198.638 65.7384 200.524 67.2372 200.147C74.536 198.311 82.0696 194.446 88.5413 190.661C93.5538 187.727 96.9353 183.548 99.0991 178.165C101.465 172.292 102.864 164.136 100.413 158.035C99.1619 154.918 97.0014 152.523 93.749 154.743C93.1435 155.157 93.2726 156.404 94.1692 156.295Z" fill="url(#paint138_linear_25_514)"/>
<path d="M95.901 154.674C92.1094 152.526 88.1325 157.605 85.8628 160.087C82.7428 163.494 78.4019 168.265 77.4192 172.881C77.1446 174.181 78.7558 175.333 79.7683 174.247C82.0611 171.786 83.4541 168.404 85.4724 165.678C87.3881 163.091 91.858 156.368 95.4577 156.315C96.318 156.301 96.6752 155.11 95.901 154.674Z" fill="url(#paint139_linear_25_514)"/>
<path d="M82.1725 166.397C79.1749 167.483 76.2501 168.79 73.4477 170.312C70.7711 171.764 67.3864 173.226 65.4376 175.595C64.7759 176.403 65.3781 177.71 66.4997 177.415C69.3219 176.677 71.8893 174.55 74.3907 173.078C77.2261 171.403 80.0517 169.706 82.8177 167.919C83.5688 167.433 83.1055 166.06 82.1725 166.397Z" fill="url(#paint140_linear_25_514)"/>
<path d="M181.265 158.958C178.433 168.798 184.389 184.587 194.946 187.707C196.455 188.15 197.375 186.264 196.412 185.189C193.13 181.526 189.351 179.25 186.787 174.81C184.025 170.029 182.771 164.679 182.903 159.18C182.926 158.23 181.523 158.065 181.265 158.958Z" fill="url(#paint141_linear_25_514)"/>
<path d="M182.164 159.959C183.626 158.013 187.302 158.146 189.519 158.453C192.795 158.903 194.829 160.898 196.808 163.33C199.432 166.556 201 170.953 203.935 173.792C204.729 174.563 206.333 174.05 206.251 172.836C205.857 167.138 199.475 159.155 194.36 156.574C190.588 154.675 181.886 154.043 180.695 159.34C180.487 160.27 181.631 160.67 182.164 159.959Z" fill="url(#paint142_linear_25_514)"/>
<path d="M189.554 182.894C194.861 187.301 200.291 191.294 206.293 194.732C211.438 197.673 217.075 201.124 223.193 200.548C224.983 200.38 225.737 197.504 223.656 197.137C211.778 195.036 200.863 187.645 190.54 181.613C189.766 181.163 188.823 182.288 189.554 182.894Z" fill="url(#paint143_linear_25_514)"/>
<path d="M161.688 113.329C169.781 118 178.076 122.613 185.405 128.452C193.041 134.54 197.6 143.159 202.758 151.275C207.542 158.802 212.459 166.266 216.724 174.104C219.328 178.892 221.71 183.805 223.616 188.914C224.741 191.928 226.587 194.611 222.845 197.238C222.114 197.751 220.059 197.834 219.146 198.178C217.832 198.677 218.11 200.385 219.467 200.55C227.854 201.572 231.129 198.416 228.416 190.088C224.611 178.412 218.12 167.758 211.602 157.442C205.441 147.692 199.724 136.284 191.271 128.28C183.555 120.981 172.845 113.951 162.459 111.499C161.377 111.244 160.683 112.746 161.688 113.329Z" fill="url(#paint144_linear_25_514)"/>
<path d="M93.1883 136.099C92.2189 141.889 93.5623 148.54 94.0718 154.349C94.2405 156.272 97.2679 156.288 97.0958 154.349C96.5764 148.533 96.7617 141.631 94.7831 136.099C94.5383 135.411 93.3339 135.222 93.1883 136.099Z" fill="url(#paint145_linear_25_514)"/>
<path d="M93.9991 137.996C109.669 136.802 125.222 135.918 140.945 136.031C157.382 136.15 173.568 136.087 189.677 139.704C191.484 140.107 192.189 137.523 190.438 136.938C175.308 131.859 157.994 133.103 142.255 133.047C126.116 132.99 109.642 133.047 93.7609 136.233C92.7783 136.431 92.9867 138.076 93.9991 137.996Z" fill="url(#paint146_linear_25_514)"/>
<path d="M191.211 138.819C191.221 138.763 191.234 138.703 191.244 138.647C191.32 138.267 191.201 137.777 190.814 137.592C190.748 137.559 190.678 137.529 190.609 137.496C190.066 137.238 189.494 137.363 189.153 137.876C187.905 139.769 188.286 143.144 188.173 145.314C187.998 148.672 187.674 152.153 188.001 155.505C188.16 157.129 190.873 157.854 191.135 155.928C191.522 153.053 191.442 150.125 191.423 147.223C191.413 145.738 191.396 144.252 191.353 142.766C191.317 141.916 191.28 141.069 191.244 140.219C191.525 138.866 191.128 138.555 190.046 139.292C190.47 139.504 191.105 139.352 191.211 138.819Z" fill="url(#paint147_linear_25_514)"/>
<path d="M96.9399 174.122C95.8249 186.023 95.3451 197.954 93.9423 209.832C92.5461 221.657 90.2631 233.343 88.7842 245.151C88.6055 246.567 90.8223 246.763 91.2028 245.479C97.8034 223.219 100.225 197.239 98.5478 174.122C98.4717 173.083 97.0359 173.096 96.9399 174.122Z" fill="url(#paint148_linear_25_514)"/>
<path d="M90.0619 247.309C106.76 247.858 123.588 245.998 140.32 246.127C157.068 246.256 173.839 248.199 190.571 247.987C192.083 247.967 192.5 245.611 190.938 245.274C174.531 241.747 157.031 241.796 140.32 241.889C123.71 241.982 106.105 241.945 89.8469 245.717C88.937 245.929 89.1719 247.279 90.0619 247.309Z" fill="url(#paint149_linear_25_514)"/>
<path d="M190.281 182.416C188.994 192.901 190.049 203.942 189.954 214.507C189.858 225.187 189.325 235.92 189.527 246.597C189.566 248.691 192.534 248.615 192.73 246.597C193.798 235.556 193.719 224.25 193.567 213.17C193.428 203.019 193.924 192.174 191.869 182.201C191.671 181.232 190.38 181.586 190.281 182.416Z" fill="url(#paint150_linear_25_514)"/>
<path d="M110.608 158.168C113.328 155.726 118.284 157.01 121.484 157.112C124.759 157.218 128.045 157.142 131.314 156.937C135.631 156.665 138.867 156.755 143.178 157.072C144.28 157.155 145.253 157.142 146.48 157.092C150.54 156.93 153.577 157.036 157.369 156.603C161.184 156.169 165.7 157.466 169.918 157.086C171.014 156.983 171.48 155.19 170.203 154.991C166.067 154.356 162.008 153.919 157.974 152.755C157.524 152.626 156.902 152.745 156.588 153.122C155.781 154.105 143.569 152.913 142.546 152.874C137.577 152.675 132.647 153.41 127.631 153.555C122.82 153.698 111.101 150.796 109.057 157.264C108.762 158.194 109.957 158.753 110.608 158.168Z" fill="url(#paint151_linear_25_514)"/>
<path d="M110.494 164.997C113.263 162.493 118.292 164.686 121.793 163.965C124.84 163.34 127.043 163.535 129.968 163.531C136.662 163.528 142.607 161.596 149.548 162.579C150.71 162.741 151.259 161.063 150.048 160.765C142.882 158.995 135.265 160.064 128.026 160.107C123.563 160.133 119.103 160.924 114.553 161.199C111.976 161.351 110.471 161.586 109.074 163.899C108.528 164.805 109.749 165.669 110.494 164.997Z" fill="url(#paint152_linear_25_514)"/>
<path d="M172.738 217.395C166.23 215.523 161.34 221.766 162.21 227.933C163.113 234.322 168.781 238.597 175.143 238.147C180.735 237.75 187.309 233.134 186.045 226.851C184.655 219.953 177.737 215.863 171.113 217.66C169.879 217.994 170.412 219.774 171.636 219.552C176.268 218.709 180.712 220.945 182.779 225.137C185.377 230.391 180.907 234.63 176.017 235.49C171.758 236.234 167.52 234.431 165.502 230.514C163.014 225.68 165.184 217.19 172.314 218.924C173.304 219.162 173.717 217.68 172.738 217.395Z" fill="url(#paint153_linear_25_514)"/>
<path d="M169.376 221.699C167.11 223.985 167.004 228.346 168.436 231.135C170.21 234.59 174.931 235.073 178.27 233.885C181.482 232.743 183.219 229.726 182.015 226.437C180.801 223.119 177.661 221.13 174.217 220.942C173.168 220.885 173.188 222.48 174.217 222.563C179.335 222.97 184.027 230.583 176.986 232.386C174.299 233.074 170.931 232.657 169.767 229.769C168.946 227.727 168.949 224.465 170.504 222.827C171.209 222.083 170.101 220.968 169.376 221.699Z" fill="url(#paint154_linear_25_514)"/>
<path d="M112.598 175.74C120.016 173.55 129.915 173.791 137.624 174.397C140.39 174.615 142.581 175.508 145.323 175.048C149.989 174.268 153.704 174.883 158.492 174.886C159.835 174.886 160.202 172.762 158.816 172.478C154.736 171.647 150.492 171.125 146.333 171.303C142.898 171.449 139.785 170.919 136.38 170.959C131.705 171.012 126.765 171.435 122.054 171.601C118.338 171.733 115.182 172.292 111.91 174.109C111.03 174.595 111.622 176.028 112.598 175.74Z" fill="url(#paint155_linear_25_514)"/>
<path d="M107.491 198.185C108.937 196.799 112.183 198.605 113.602 198.85C116.249 199.304 118.297 198.93 120.855 198.509C124.263 197.954 126.926 197.067 130.595 197.613C132.657 197.921 134.645 198.39 136.73 198.619C142.444 199.247 147.35 199.366 152.942 198.271C159.152 197.057 165.634 197.977 171.933 197.735C173.306 197.686 173.286 195.717 171.933 195.618C166.371 195.211 159.959 194.509 154.417 195.294C146.219 196.455 138.609 197.146 130.44 194.784C124.21 192.981 120.197 197.13 113.788 196.303C110.999 195.945 108.054 194.473 106.211 197.196C105.682 197.983 106.843 198.811 107.491 198.185Z" fill="url(#paint156_linear_25_514)"/>
<path d="M169.307 204.115C167.176 203.913 165.164 202.464 163.007 202.444C161.058 202.424 158.878 202.798 156.942 202.94C148.754 203.539 140.366 204.108 132.118 204.833C130.864 204.942 130.818 206.821 132.118 206.818C141.058 206.805 150.143 206.424 159.01 206.083C159.884 206.05 160.453 205.815 161.416 205.647C164.509 205.107 166.584 206.298 169.538 205.809C170.564 205.64 170.203 204.201 169.307 204.115Z" fill="url(#paint157_linear_25_514)"/>
<path d="M169.036 211.079C167.551 211.085 165.152 209.805 163.468 209.57C161.827 209.345 160.225 209.725 158.611 209.924C153.992 210.49 149.37 210.622 144.715 210.711C143.517 210.731 143.524 212.521 144.715 212.567C149.489 212.753 154.124 212.505 158.876 212.048C161.443 211.8 163.567 212.227 166.058 212.478C168.209 212.697 167.107 212.978 169.248 212.657C170.158 212.518 169.92 211.072 169.036 211.079Z" fill="url(#paint158_linear_25_514)"/>
<path d="M102.708 229.565C108.052 229.439 113.379 229.293 118.719 229.025C121.061 228.906 123.48 228.575 125.826 228.668C128.403 228.767 130.11 229.922 132.516 230.163C135.583 230.474 137.647 228.728 140.618 228.43C146.309 227.854 153.042 231.077 158.657 232.096C160.099 232.357 160.682 230.355 159.266 229.879C154.081 228.135 148.116 226.196 142.676 225.426C138.335 224.807 135.92 227.169 131.374 226.994C128.052 226.865 124.869 226.22 121.389 226.431C115.149 226.809 108.935 227.331 102.708 227.9C101.659 227.996 101.62 229.591 102.708 229.565Z" fill="url(#paint159_linear_25_514)"/>
<path d="M139.485 237.372C140.663 236.611 141.815 235.824 143.009 235.092C142.48 234.877 141.95 234.662 141.424 234.447C142.116 236.949 144.157 237.537 146.486 236.773C147.224 236.528 147.535 236.062 148.369 236.121C148.535 236.135 149.841 236.985 150.123 237.028C152.495 237.389 154.282 235.767 156.842 237.097C157.749 237.567 158.781 236.386 157.974 235.628C155.635 233.441 154 234.626 151.211 234.484C149.99 234.424 149.448 233.647 148.273 233.498C146.86 233.319 144.432 235.42 143.396 233.613C143.039 232.988 142.208 232.935 141.699 233.395C140.667 234.338 139.591 235.221 138.533 236.138C137.861 236.72 138.738 237.855 139.485 237.372Z" fill="url(#paint160_linear_25_514)"/>
<defs>
<linearGradient id="paint0_linear_25_514" x1="56.5857" y1="291.399" x2="254.917" y2="287.1" gradientUnits="userSpaceOnUse">
<stop stop-color="#487BFF"/>
<stop offset="1" stop-color="#4627FF"/>
</linearGradient>
<linearGradient id="paint1_linear_25_514" x1="9.0477" y1="42.0771" x2="18.0329" y2="41.8521" gradientUnits="userSpaceOnUse">
<stop stop-color="#487BFF"/>
<stop offset="1" stop-color="#4627FF"/>
</linearGradient>
<linearGradient id="paint2_linear_25_514" x1="7.49022" y1="50.3677" x2="17.4815" y2="50.1365" gradientUnits="userSpaceOnUse">
<stop stop-color="#487BFF"/>
<stop offset="1" stop-color="#4627FF"/>
</linearGradient>
<linearGradient id="paint3_linear_25_514" x1="8.06137" y1="55.6235" x2="18.9614" y2="55.354" gradientUnits="userSpaceOnUse">
<stop stop-color="#487BFF"/>
<stop offset="1" stop-color="#4627FF"/>
</linearGradient>
<linearGradient id="paint4_linear_25_514" x1="7.75925" y1="63.3594" x2="18.9806" y2="63.0885" gradientUnits="userSpaceOnUse">
<stop stop-color="#487BFF"/>
<stop offset="1" stop-color="#4627FF"/>
</linearGradient>
<linearGradient id="paint5_linear_25_514" x1="7.28193" y1="70.4931" x2="17.6773" y2="70.2543" gradientUnits="userSpaceOnUse">
<stop stop-color="#487BFF"/>
<stop offset="1" stop-color="#4627FF"/>
</linearGradient>
<linearGradient id="paint6_linear_25_514" x1="7.54483" y1="77.3208" x2="19.0342" y2="77.0318" gradientUnits="userSpaceOnUse">
<stop stop-color="#487BFF"/>
<stop offset="1" stop-color="#4627FF"/>
</linearGradient>
<linearGradient id="paint7_linear_25_514" x1="6.70122" y1="84.7812" x2="18.4173" y2="84.4938" gradientUnits="userSpaceOnUse">
<stop stop-color="#487BFF"/>
<stop offset="1" stop-color="#4627FF"/>
</linearGradient>
<linearGradient id="paint8_linear_25_514" x1="6.30703" y1="92.1582" x2="16.9245" y2="91.9296" gradientUnits="userSpaceOnUse">
<stop stop-color="#487BFF"/>
<stop offset="1" stop-color="#4627FF"/>
</linearGradient>
<linearGradient id="paint9_linear_25_514" x1="6.68564" y1="98.6157" x2="17.7367" y2="98.3854" gradientUnits="userSpaceOnUse">
<stop stop-color="#487BFF"/>
<stop offset="1" stop-color="#4627FF"/>
</linearGradient>
<linearGradient id="paint10_linear_25_514" x1="5.79205" y1="106.291" x2="17.9684" y2="106.034" gradientUnits="userSpaceOnUse">
<stop stop-color="#487BFF"/>
<stop offset="1" stop-color="#4627FF"/>
</linearGradient>
<linearGradient id="paint11_linear_25_514" x1="6.18978" y1="111.101" x2="16.7989" y2="110.847" gradientUnits="userSpaceOnUse">
<stop stop-color="#487BFF"/>
<stop offset="1" stop-color="#4627FF"/>
</linearGradient>
<linearGradient id="paint12_linear_25_514" x1="5.30483" y1="119.625" x2="15.9974" y2="119.399" gradientUnits="userSpaceOnUse">
<stop stop-color="#487BFF"/>
<stop offset="1" stop-color="#4627FF"/>
</linearGradient>
<linearGradient id="paint13_linear_25_514" x1="6.08215" y1="127.232" x2="17.9751" y2="126.959" gradientUnits="userSpaceOnUse">
<stop stop-color="#487BFF"/>
<stop offset="1" stop-color="#4627FF"/>
</linearGradient>
<linearGradient id="paint14_linear_25_514" x1="5.54999" y1="134.623" x2="17.225" y2="134.37" gradientUnits="userSpaceOnUse">
<stop stop-color="#487BFF"/>
<stop offset="1" stop-color="#4627FF"/>
</linearGradient>
<linearGradient id="paint15_linear_25_514" x1="5.7186" y1="144.537" x2="17.369" y2="144.302" gradientUnits="userSpaceOnUse">
<stop stop-color="#487BFF"/>
<stop offset="1" stop-color="#4627FF"/>
</linearGradient>
<linearGradient id="paint16_linear_25_514" x1="6.28994" y1="151.822" x2="18.1932" y2="151.565" gradientUnits="userSpaceOnUse">
<stop stop-color="#487BFF"/>
<stop offset="1" stop-color="#4627FF"/>
</linearGradient>
<linearGradient id="paint17_linear_25_514" x1="5.23149" y1="160.425" x2="15.9051" y2="160.209" gradientUnits="userSpaceOnUse">
<stop stop-color="#487BFF"/>
<stop offset="1" stop-color="#4627FF"/>
</linearGradient>
<linearGradient id="paint18_linear_25_514" x1="6.42627" y1="166.757" x2="16.731" y2="166.551" gradientUnits="userSpaceOnUse">
<stop stop-color="#487BFF"/>
<stop offset="1" stop-color="#4627FF"/>
</linearGradient>
<linearGradient id="paint19_linear_25_514" x1="6.29049" y1="173.852" x2="16.709" y2="173.646" gradientUnits="userSpaceOnUse">
<stop stop-color="#487BFF"/>
<stop offset="1" stop-color="#4627FF"/>
</linearGradient>
<linearGradient id="paint20_linear_25_514" x1="5.71266" y1="182.236" x2="16.1528" y2="182.03" gradientUnits="userSpaceOnUse">
<stop stop-color="#487BFF"/>
<stop offset="1" stop-color="#4627FF"/>
</linearGradient>
<linearGradient id="paint21_linear_25_514" x1="5.87437" y1="191.451" x2="17.2076" y2="191.222" gradientUnits="userSpaceOnUse">
<stop stop-color="#487BFF"/>
<stop offset="1" stop-color="#4627FF"/>
</linearGradient>
<linearGradient id="paint22_linear_25_514" x1="6.16127" y1="199.187" x2="17.9483" y2="198.937" gradientUnits="userSpaceOnUse">
<stop stop-color="#487BFF"/>
<stop offset="1" stop-color="#4627FF"/>
</linearGradient>
<linearGradient id="paint23_linear_25_514" x1="6.92875" y1="206.77" x2="17.4972" y2="206.555" gradientUnits="userSpaceOnUse">
<stop stop-color="#487BFF"/>
<stop offset="1" stop-color="#4627FF"/>
</linearGradient>
<linearGradient id="paint24_linear_25_514" x1="6.31624" y1="214.708" x2="15.9223" y2="214.518" gradientUnits="userSpaceOnUse">
<stop stop-color="#487BFF"/>
<stop offset="1" stop-color="#4627FF"/>
</linearGradient>
<linearGradient id="paint25_linear_25_514" x1="6.45378" y1="225.171" x2="16.6807" y2="224.99" gradientUnits="userSpaceOnUse">
<stop stop-color="#487BFF"/>
<stop offset="1" stop-color="#4627FF"/>
</linearGradient>
<linearGradient id="paint26_linear_25_514" x1="5.86739" y1="233.846" x2="16.4989" y2="233.639" gradientUnits="userSpaceOnUse">
<stop stop-color="#487BFF"/>
<stop offset="1" stop-color="#4627FF"/>
</linearGradient>
<linearGradient id="paint27_linear_25_514" x1="6.81238" y1="243.501" x2="16.8241" y2="243.313" gradientUnits="userSpaceOnUse">
<stop stop-color="#487BFF"/>
<stop offset="1" stop-color="#4627FF"/>
</linearGradient>
<linearGradient id="paint28_linear_25_514" x1="6.04284" y1="257.557" x2="16.1064" y2="257.372" gradientUnits="userSpaceOnUse">
<stop stop-color="#487BFF"/>
<stop offset="1" stop-color="#4627FF"/>
</linearGradient>
<linearGradient id="paint29_linear_25_514" x1="7.08905" y1="266.551" x2="17.1384" y2="266.371" gradientUnits="userSpaceOnUse">
<stop stop-color="#487BFF"/>
<stop offset="1" stop-color="#4627FF"/>
</linearGradient>
<linearGradient id="paint30_linear_25_514" x1="7.12762" y1="277.999" x2="17.0764" y2="277.857" gradientUnits="userSpaceOnUse">
<stop stop-color="#487BFF"/>
<stop offset="1" stop-color="#4627FF"/>
</linearGradient>
<linearGradient id="paint31_linear_25_514" x1="6.85951" y1="288.941" x2="17.7348" y2="288.758" gradientUnits="userSpaceOnUse">
<stop stop-color="#487BFF"/>
<stop offset="1" stop-color="#4627FF"/>
</linearGradient>
<linearGradient id="paint32_linear_25_514" x1="14.1735" y1="288.907" x2="23.2485" y2="288.74" gradientUnits="userSpaceOnUse">
<stop stop-color="#487BFF"/>
<stop offset="1" stop-color="#4627FF"/>
</linearGradient>
<linearGradient id="paint33_linear_25_514" x1="23.2042" y1="289.546" x2="32.2711" y2="289.401" gradientUnits="userSpaceOnUse">
<stop stop-color="#487BFF"/>
<stop offset="1" stop-color="#4627FF"/>
</linearGradient>
<linearGradient id="paint34_linear_25_514" x1="33.8279" y1="287.852" x2="41.4871" y2="287.734" gradientUnits="userSpaceOnUse">
<stop stop-color="#487BFF"/>
<stop offset="1" stop-color="#4627FF"/>
</linearGradient>
<linearGradient id="paint35_linear_25_514" x1="42.043" y1="288.793" x2="49.0641" y2="288.7" gradientUnits="userSpaceOnUse">
<stop stop-color="#487BFF"/>
<stop offset="1" stop-color="#4627FF"/>
</linearGradient>
<linearGradient id="paint36_linear_25_514" x1="49.1041" y1="285.608" x2="55.6678" y2="285.505" gradientUnits="userSpaceOnUse">
<stop stop-color="#487BFF"/>
<stop offset="1" stop-color="#4627FF"/>
</linearGradient>
<linearGradient id="paint37_linear_25_514" x1="57.0131" y1="288.116" x2="64.0008" y2="288.016" gradientUnits="userSpaceOnUse">
<stop stop-color="#487BFF"/>
<stop offset="1" stop-color="#4627FF"/>
</linearGradient>
<linearGradient id="paint38_linear_25_514" x1="64.3948" y1="289.218" x2="70.7217" y2="289.139" gradientUnits="userSpaceOnUse">
<stop stop-color="#487BFF"/>
<stop offset="1" stop-color="#4627FF"/>
</linearGradient>
<linearGradient id="paint39_linear_25_514" x1="71.742" y1="289.861" x2="79.0549" y2="289.755" gradientUnits="userSpaceOnUse">
<stop stop-color="#487BFF"/>
<stop offset="1" stop-color="#4627FF"/>
</linearGradient>
<linearGradient id="paint40_linear_25_514" x1="79.0588" y1="289.266" x2="86.3199" y2="289.17" gradientUnits="userSpaceOnUse">
<stop stop-color="#487BFF"/>
<stop offset="1" stop-color="#4627FF"/>
</linearGradient>
<linearGradient id="paint41_linear_25_514" x1="84.8704" y1="289.163" x2="91.2633" y2="289.086" gradientUnits="userSpaceOnUse">
<stop stop-color="#487BFF"/>
<stop offset="1" stop-color="#4627FF"/>
</linearGradient>
<linearGradient id="paint42_linear_25_514" x1="91.3662" y1="286.779" x2="97.6024" y2="286.693" gradientUnits="userSpaceOnUse">
<stop stop-color="#487BFF"/>
<stop offset="1" stop-color="#4627FF"/>
</linearGradient>
<linearGradient id="paint43_linear_25_514" x1="99.7182" y1="286.628" x2="106.266" y2="286.534" gradientUnits="userSpaceOnUse">
<stop stop-color="#487BFF"/>
<stop offset="1" stop-color="#4627FF"/>
</linearGradient>
<linearGradient id="paint44_linear_25_514" x1="105.869" y1="288.083" x2="112.679" y2="287.989" gradientUnits="userSpaceOnUse">
<stop stop-color="#487BFF"/>
<stop offset="1" stop-color="#4627FF"/>
</linearGradient>
<linearGradient id="paint45_linear_25_514" x1="112.62" y1="288.452" x2="120.664" y2="288.322" gradientUnits="userSpaceOnUse">
<stop stop-color="#487BFF"/>
<stop offset="1" stop-color="#4627FF"/>
</linearGradient>
<linearGradient id="paint46_linear_25_514" x1="121.383" y1="289.193" x2="129.506" y2="289.072" gradientUnits="userSpaceOnUse">
<stop stop-color="#487BFF"/>
<stop offset="1" stop-color="#4627FF"/>
</linearGradient>
<linearGradient id="paint47_linear_25_514" x1="128.944" y1="290.343" x2="135.487" y2="290.262" gradientUnits="userSpaceOnUse">
<stop stop-color="#487BFF"/>
<stop offset="1" stop-color="#4627FF"/>
</linearGradient>
<linearGradient id="paint48_linear_25_514" x1="140.249" y1="289.538" x2="148.749" y2="289.406" gradientUnits="userSpaceOnUse">
<stop stop-color="#487BFF"/>
<stop offset="1" stop-color="#4627FF"/>
</linearGradient>
<linearGradient id="paint49_linear_25_514" x1="150.024" y1="288.88" x2="157.648" y2="288.78" gradientUnits="userSpaceOnUse">
<stop stop-color="#487BFF"/>
<stop offset="1" stop-color="#4627FF"/>
</linearGradient>
<linearGradient id="paint50_linear_25_514" x1="158.019" y1="288.878" x2="164.685" y2="288.791" gradientUnits="userSpaceOnUse">
<stop stop-color="#487BFF"/>
<stop offset="1" stop-color="#4627FF"/>
</linearGradient>
<linearGradient id="paint51_linear_25_514" x1="166.605" y1="288.721" x2="172.411" y2="288.657" gradientUnits="userSpaceOnUse">
<stop stop-color="#487BFF"/>
<stop offset="1" stop-color="#4627FF"/>
</linearGradient>
<linearGradient id="paint52_linear_25_514" x1="175.079" y1="290.172" x2="181.977" y2="290.085" gradientUnits="userSpaceOnUse">
<stop stop-color="#487BFF"/>
<stop offset="1" stop-color="#4627FF"/>
</linearGradient>
<linearGradient id="paint53_linear_25_514" x1="181.891" y1="289.829" x2="188.407" y2="289.751" gradientUnits="userSpaceOnUse">
<stop stop-color="#487BFF"/>
<stop offset="1" stop-color="#4627FF"/>
</linearGradient>
<linearGradient id="paint54_linear_25_514" x1="188.774" y1="290.536" x2="195.813" y2="290.45" gradientUnits="userSpaceOnUse">
<stop stop-color="#487BFF"/>
<stop offset="1" stop-color="#4627FF"/>
</linearGradient>
<linearGradient id="paint55_linear_25_514" x1="197.454" y1="290.526" x2="204.295" y2="290.442" gradientUnits="userSpaceOnUse">
<stop stop-color="#487BFF"/>
<stop offset="1" stop-color="#4627FF"/>
</linearGradient>
<linearGradient id="paint56_linear_25_514" x1="206.812" y1="288.798" x2="213.266" y2="288.719" gradientUnits="userSpaceOnUse">
<stop stop-color="#487BFF"/>
<stop offset="1" stop-color="#4627FF"/>
</linearGradient>
<linearGradient id="paint57_linear_25_514" x1="213.697" y1="290.992" x2="221.202" y2="290.898" gradientUnits="userSpaceOnUse">
<stop stop-color="#487BFF"/>
<stop offset="1" stop-color="#4627FF"/>
</linearGradient>
<linearGradient id="paint58_linear_25_514" x1="220.81" y1="288.808" x2="226.819" y2="288.729" gradientUnits="userSpaceOnUse">
<stop stop-color="#487BFF"/>
<stop offset="1" stop-color="#4627FF"/>
</linearGradient>
<linearGradient id="paint59_linear_25_514" x1="227.313" y1="287.041" x2="233.242" y2="286.952" gradientUnits="userSpaceOnUse">
<stop stop-color="#487BFF"/>
<stop offset="1" stop-color="#4627FF"/>
</linearGradient>
<linearGradient id="paint60_linear_25_514" x1="28.0257" y1="45.6386" x2="31.0651" y2="45.6256" gradientUnits="userSpaceOnUse">
<stop stop-color="#487BFF"/>
<stop offset="1" stop-color="#4627FF"/>
</linearGradient>
<linearGradient id="paint61_linear_25_514" x1="32.677" y1="72.2485" x2="35.8993" y2="72.242" gradientUnits="userSpaceOnUse">
<stop stop-color="#487BFF"/>
<stop offset="1" stop-color="#4627FF"/>
</linearGradient>
<linearGradient id="paint62_linear_25_514" x1="237.664" y1="269.062" x2="240.767" y2="269.057" gradientUnits="userSpaceOnUse">
<stop stop-color="#487BFF"/>
<stop offset="1" stop-color="#4627FF"/>
</linearGradient>
<linearGradient id="paint63_linear_25_514" x1="241.696" y1="271.572" x2="245.356" y2="271.561" gradientUnits="userSpaceOnUse">
<stop stop-color="#487BFF"/>
<stop offset="1" stop-color="#4627FF"/>
</linearGradient>
<linearGradient id="paint64_linear_25_514" x1="225.55" y1="36.2803" x2="255.73" y2="27.6276" gradientUnits="userSpaceOnUse">
<stop stop-color="#487BFF"/>
<stop offset="1" stop-color="#4627FF"/>
</linearGradient>
<linearGradient id="paint65_linear_25_514" x1="199.699" y1="41.2246" x2="251.42" y2="22.8547" gradientUnits="userSpaceOnUse">
<stop stop-color="#487BFF"/>
<stop offset="1" stop-color="#4627FF"/>
</linearGradient>
<linearGradient id="paint66_linear_25_514" x1="243.427" y1="55.3476" x2="246.777" y2="55.3365" gradientUnits="userSpaceOnUse">
<stop stop-color="#487BFF"/>
<stop offset="1" stop-color="#4627FF"/>
</linearGradient>
<linearGradient id="paint67_linear_25_514" x1="236.267" y1="62.8774" x2="239.607" y2="62.8675" gradientUnits="userSpaceOnUse">
<stop stop-color="#487BFF"/>
<stop offset="1" stop-color="#4627FF"/>
</linearGradient>
<linearGradient id="paint68_linear_25_514" x1="25.0226" y1="275.558" x2="28.4219" y2="275.551" gradientUnits="userSpaceOnUse">
<stop stop-color="#487BFF"/>
<stop offset="1" stop-color="#4627FF"/>
</linearGradient>
<linearGradient id="paint69_linear_25_514" x1="29.4199" y1="271.559" x2="32.9636" y2="271.545" gradientUnits="userSpaceOnUse">
<stop stop-color="#487BFF"/>
<stop offset="1" stop-color="#4627FF"/>
</linearGradient>
<linearGradient id="paint70_linear_25_514" x1="21.9289" y1="270.107" x2="48.1868" y2="266.072" gradientUnits="userSpaceOnUse">
<stop stop-color="#487BFF"/>
<stop offset="1" stop-color="#4627FF"/>
</linearGradient>
<linearGradient id="paint71_linear_25_514" x1="46.4106" y1="111.077" x2="50.1872" y2="111.069" gradientUnits="userSpaceOnUse">
<stop stop-color="#487BFF"/>
<stop offset="1" stop-color="#4627FF"/>
</linearGradient>
<linearGradient id="paint72_linear_25_514" x1="73.1292" y1="213.182" x2="82.033" y2="212.624" gradientUnits="userSpaceOnUse">
<stop stop-color="#487BFF"/>
<stop offset="1" stop-color="#4627FF"/>
</linearGradient>
<linearGradient id="paint73_linear_25_514" x1="67.7942" y1="228.834" x2="79.4127" y2="228.056" gradientUnits="userSpaceOnUse">
<stop stop-color="#487BFF"/>
<stop offset="1" stop-color="#4627FF"/>
</linearGradient>
<linearGradient id="paint74_linear_25_514" x1="201.207" y1="220.872" x2="207.755" y2="220.62" gradientUnits="userSpaceOnUse">
<stop stop-color="#487BFF"/>
<stop offset="1" stop-color="#4627FF"/>
</linearGradient>
<linearGradient id="paint75_linear_25_514" x1="203.221" y1="235.964" x2="209.11" y2="235.707" gradientUnits="userSpaceOnUse">
<stop stop-color="#487BFF"/>
<stop offset="1" stop-color="#4627FF"/>
</linearGradient>
<linearGradient id="paint76_linear_25_514" x1="196.821" y1="256.922" x2="203.078" y2="256.76" gradientUnits="userSpaceOnUse">
<stop stop-color="#487BFF"/>
<stop offset="1" stop-color="#4627FF"/>
</linearGradient>
<linearGradient id="paint77_linear_25_514" x1="159.654" y1="264.108" x2="164.53" y2="264.038" gradientUnits="userSpaceOnUse">
<stop stop-color="#487BFF"/>
<stop offset="1" stop-color="#4627FF"/>
</linearGradient>
<linearGradient id="paint78_linear_25_514" x1="127.061" y1="263.627" x2="130.998" y2="263.582" gradientUnits="userSpaceOnUse">
<stop stop-color="#487BFF"/>
<stop offset="1" stop-color="#4627FF"/>
</linearGradient>
<linearGradient id="paint79_linear_25_514" x1="101.53" y1="263.729" x2="107.222" y2="263.618" gradientUnits="userSpaceOnUse">
<stop stop-color="#487BFF"/>
<stop offset="1" stop-color="#4627FF"/>
</linearGradient>
<linearGradient id="paint80_linear_25_514" x1="80.6214" y1="257.95" x2="89.2826" y2="257.6" gradientUnits="userSpaceOnUse">
<stop stop-color="#487BFF"/>
<stop offset="1" stop-color="#4627FF"/>
</linearGradient>
<linearGradient id="paint81_linear_25_514" x1="71.5062" y1="276.1" x2="273.017" y2="271.864" gradientUnits="userSpaceOnUse">
<stop stop-color="#487BFF"/>
<stop offset="1" stop-color="#4627FF"/>
</linearGradient>
<linearGradient id="paint82_linear_25_514" x1="216.739" y1="41.8623" x2="229.559" y2="40.9597" gradientUnits="userSpaceOnUse">
<stop stop-color="#487BFF"/>
<stop offset="1" stop-color="#4627FF"/>
</linearGradient>
<linearGradient id="paint83_linear_25_514" x1="64.7458" y1="52.8945" x2="74.6399" y2="52.6363" gradientUnits="userSpaceOnUse">
<stop stop-color="#487BFF"/>
<stop offset="1" stop-color="#4627FF"/>
</linearGradient>
<linearGradient id="paint84_linear_25_514" x1="183.048" y1="167.994" x2="190.118" y2="167.85" gradientUnits="userSpaceOnUse">
<stop stop-color="#487BFF"/>
<stop offset="1" stop-color="#4627FF"/>
</linearGradient>
<linearGradient id="paint85_linear_25_514" x1="185.871" y1="171.945" x2="194.558" y2="171.785" gradientUnits="userSpaceOnUse">
<stop stop-color="#487BFF"/>
<stop offset="1" stop-color="#4627FF"/>
</linearGradient>
<linearGradient id="paint86_linear_25_514" x1="190.027" y1="175.31" x2="203.115" y2="175.07" gradientUnits="userSpaceOnUse">
<stop stop-color="#487BFF"/>
<stop offset="1" stop-color="#4627FF"/>
</linearGradient>
<linearGradient id="paint87_linear_25_514" x1="191.775" y1="182.181" x2="205.652" y2="181.952" gradientUnits="userSpaceOnUse">
<stop stop-color="#487BFF"/>
<stop offset="1" stop-color="#4627FF"/>
</linearGradient>
<linearGradient id="paint88_linear_25_514" x1="196.238" y1="183.285" x2="209.926" y2="183.05" gradientUnits="userSpaceOnUse">
<stop stop-color="#487BFF"/>
<stop offset="1" stop-color="#4627FF"/>
</linearGradient>
<linearGradient id="paint89_linear_25_514" x1="198.906" y1="186.833" x2="212.235" y2="186.611" gradientUnits="userSpaceOnUse">
<stop stop-color="#487BFF"/>
<stop offset="1" stop-color="#4627FF"/>
</linearGradient>
<linearGradient id="paint90_linear_25_514" x1="202.836" y1="187.608" x2="214.819" y2="187.412" gradientUnits="userSpaceOnUse">
<stop stop-color="#487BFF"/>
<stop offset="1" stop-color="#4627FF"/>
</linearGradient>
<linearGradient id="paint91_linear_25_514" x1="205.326" y1="189.865" x2="215.59" y2="189.708" gradientUnits="userSpaceOnUse">
<stop stop-color="#487BFF"/>
<stop offset="1" stop-color="#4627FF"/>
</linearGradient>
<linearGradient id="paint92_linear_25_514" x1="208.771" y1="191.863" x2="218.691" y2="191.717" gradientUnits="userSpaceOnUse">
<stop stop-color="#487BFF"/>
<stop offset="1" stop-color="#4627FF"/>
</linearGradient>
<linearGradient id="paint93_linear_25_514" x1="211.762" y1="193.548" x2="219.081" y2="193.454" gradientUnits="userSpaceOnUse">
<stop stop-color="#487BFF"/>
<stop offset="1" stop-color="#4627FF"/>
</linearGradient>
<linearGradient id="paint94_linear_25_514" x1="215.147" y1="196.274" x2="222.067" y2="196.181" gradientUnits="userSpaceOnUse">
<stop stop-color="#487BFF"/>
<stop offset="1" stop-color="#4627FF"/>
</linearGradient>
<linearGradient id="paint95_linear_25_514" x1="220.694" y1="196.331" x2="226.047" y2="196.263" gradientUnits="userSpaceOnUse">
<stop stop-color="#487BFF"/>
<stop offset="1" stop-color="#4627FF"/>
</linearGradient>
<linearGradient id="paint96_linear_25_514" x1="128.107" y1="82.4179" x2="148.944" y2="81.9662" gradientUnits="userSpaceOnUse">
<stop stop-color="#487BFF"/>
<stop offset="1" stop-color="#4627FF"/>
</linearGradient>
<linearGradient id="paint97_linear_25_514" x1="128.992" y1="93.164" x2="158.177" y2="92.5396" gradientUnits="userSpaceOnUse">
<stop stop-color="#487BFF"/>
<stop offset="1" stop-color="#4627FF"/>
</linearGradient>
<linearGradient id="paint98_linear_25_514" x1="133.181" y1="97.0927" x2="163.295" y2="96.4564" gradientUnits="userSpaceOnUse">
<stop stop-color="#487BFF"/>
<stop offset="1" stop-color="#4627FF"/>
</linearGradient>
<linearGradient id="paint99_linear_25_514" x1="135.395" y1="103.564" x2="169.807" y2="102.843" gradientUnits="userSpaceOnUse">
<stop stop-color="#487BFF"/>
<stop offset="1" stop-color="#4627FF"/>
</linearGradient>
<linearGradient id="paint100_linear_25_514" x1="140.26" y1="104.455" x2="173.379" y2="103.757" gradientUnits="userSpaceOnUse">
<stop stop-color="#487BFF"/>
<stop offset="1" stop-color="#4627FF"/>
</linearGradient>
<linearGradient id="paint101_linear_25_514" x1="138.597" y1="116.774" x2="173.736" y2="116.057" gradientUnits="userSpaceOnUse">
<stop stop-color="#487BFF"/>
<stop offset="1" stop-color="#4627FF"/>
</linearGradient>
<linearGradient id="paint102_linear_25_514" x1="145.696" y1="116.191" x2="175.949" y2="115.54" gradientUnits="userSpaceOnUse">
<stop stop-color="#487BFF"/>
<stop offset="1" stop-color="#4627FF"/>
</linearGradient>
<linearGradient id="paint103_linear_25_514" x1="146.087" y1="121.683" x2="170.885" y2="121.191" gradientUnits="userSpaceOnUse">
<stop stop-color="#487BFF"/>
<stop offset="1" stop-color="#4627FF"/>
</linearGradient>
<linearGradient id="paint104_linear_25_514" x1="150.889" y1="121.378" x2="165.938" y2="121.059" gradientUnits="userSpaceOnUse">
<stop stop-color="#487BFF"/>
<stop offset="1" stop-color="#4627FF"/>
</linearGradient>
<linearGradient id="paint105_linear_25_514" x1="164.976" y1="132.36" x2="171.622" y2="132.283" gradientUnits="userSpaceOnUse">
<stop stop-color="#487BFF"/>
<stop offset="1" stop-color="#4627FF"/>
</linearGradient>
<linearGradient id="paint106_linear_25_514" x1="169.945" y1="134.324" x2="176.07" y2="134.254" gradientUnits="userSpaceOnUse">
<stop stop-color="#487BFF"/>
<stop offset="1" stop-color="#4627FF"/>
</linearGradient>
<linearGradient id="paint107_linear_25_514" x1="173.18" y1="134.682" x2="178.165" y2="134.625" gradientUnits="userSpaceOnUse">
<stop stop-color="#487BFF"/>
<stop offset="1" stop-color="#4627FF"/>
</linearGradient>
<linearGradient id="paint108_linear_25_514" x1="177.171" y1="135.48" x2="182.63" y2="135.415" gradientUnits="userSpaceOnUse">
<stop stop-color="#487BFF"/>
<stop offset="1" stop-color="#4627FF"/>
</linearGradient>
<linearGradient id="paint109_linear_25_514" x1="181.392" y1="135.095" x2="185.027" y2="135.056" gradientUnits="userSpaceOnUse">
<stop stop-color="#487BFF"/>
<stop offset="1" stop-color="#4627FF"/>
</linearGradient>
<linearGradient id="paint110_linear_25_514" x1="184.917" y1="136.273" x2="188.222" y2="136.238" gradientUnits="userSpaceOnUse">
<stop stop-color="#487BFF"/>
<stop offset="1" stop-color="#4627FF"/>
</linearGradient>
<linearGradient id="paint111_linear_25_514" x1="187.247" y1="139.74" x2="191.32" y2="139.686" gradientUnits="userSpaceOnUse">
<stop stop-color="#487BFF"/>
<stop offset="1" stop-color="#4627FF"/>
</linearGradient>
<linearGradient id="paint112_linear_25_514" x1="189.795" y1="144.533" x2="193.929" y2="144.483" gradientUnits="userSpaceOnUse">
<stop stop-color="#487BFF"/>
<stop offset="1" stop-color="#4627FF"/>
</linearGradient>
<linearGradient id="paint113_linear_25_514" x1="192.547" y1="152.317" x2="198.257" y2="152.258" gradientUnits="userSpaceOnUse">
<stop stop-color="#487BFF"/>
<stop offset="1" stop-color="#4627FF"/>
</linearGradient>
<linearGradient id="paint114_linear_25_514" x1="195.028" y1="158.239" x2="201.196" y2="158.173" gradientUnits="userSpaceOnUse">
<stop stop-color="#487BFF"/>
<stop offset="1" stop-color="#4627FF"/>
</linearGradient>
<linearGradient id="paint115_linear_25_514" x1="198.144" y1="159.436" x2="204.086" y2="159.336" gradientUnits="userSpaceOnUse">
<stop stop-color="#487BFF"/>
<stop offset="1" stop-color="#4627FF"/>
</linearGradient>
<linearGradient id="paint116_linear_25_514" x1="132.092" y1="135.04" x2="138.141" y2="134.964" gradientUnits="userSpaceOnUse">
<stop stop-color="#487BFF"/>
<stop offset="1" stop-color="#4627FF"/>
</linearGradient>
<linearGradient id="paint117_linear_25_514" x1="138.701" y1="133.083" x2="143.134" y2="133.034" gradientUnits="userSpaceOnUse">
<stop stop-color="#487BFF"/>
<stop offset="1" stop-color="#4627FF"/>
</linearGradient>
<linearGradient id="paint118_linear_25_514" x1="143.619" y1="133.822" x2="149.024" y2="133.767" gradientUnits="userSpaceOnUse">
<stop stop-color="#487BFF"/>
<stop offset="1" stop-color="#4627FF"/>
</linearGradient>
<linearGradient id="paint119_linear_25_514" x1="150.182" y1="134.255" x2="156.228" y2="134.199" gradientUnits="userSpaceOnUse">
<stop stop-color="#487BFF"/>
<stop offset="1" stop-color="#4627FF"/>
</linearGradient>
<linearGradient id="paint120_linear_25_514" x1="155.525" y1="134.245" x2="162.459" y2="134.172" gradientUnits="userSpaceOnUse">
<stop stop-color="#487BFF"/>
<stop offset="1" stop-color="#4627FF"/>
</linearGradient>
<linearGradient id="paint121_linear_25_514" x1="161.679" y1="131.103" x2="168.048" y2="131.031" gradientUnits="userSpaceOnUse">
<stop stop-color="#487BFF"/>
<stop offset="1" stop-color="#4627FF"/>
</linearGradient>
<linearGradient id="paint122_linear_25_514" x1="111.922" y1="135.372" x2="116.573" y2="135.325" gradientUnits="userSpaceOnUse">
<stop stop-color="#487BFF"/>
<stop offset="1" stop-color="#4627FF"/>
</linearGradient>
<linearGradient id="paint123_linear_25_514" x1="118.504" y1="135.837" x2="123.626" y2="135.796" gradientUnits="userSpaceOnUse">
<stop stop-color="#487BFF"/>
<stop offset="1" stop-color="#4627FF"/>
</linearGradient>
<linearGradient id="paint124_linear_25_514" x1="124.586" y1="133.907" x2="129.864" y2="133.858" gradientUnits="userSpaceOnUse">
<stop stop-color="#487BFF"/>
<stop offset="1" stop-color="#4627FF"/>
</linearGradient>
<linearGradient id="paint125_linear_25_514" x1="105.747" y1="135.513" x2="110.704" y2="135.455" gradientUnits="userSpaceOnUse">
<stop stop-color="#487BFF"/>
<stop offset="1" stop-color="#4627FF"/>
</linearGradient>
<linearGradient id="paint126_linear_25_514" x1="100.734" y1="136.638" x2="105.167" y2="136.588" gradientUnits="userSpaceOnUse">
<stop stop-color="#487BFF"/>
<stop offset="1" stop-color="#4627FF"/>
</linearGradient>
<linearGradient id="paint127_linear_25_514" x1="95.9677" y1="138.625" x2="98.7955" y2="138.598" gradientUnits="userSpaceOnUse">
<stop stop-color="#487BFF"/>
<stop offset="1" stop-color="#4627FF"/>
</linearGradient>
<linearGradient id="paint128_linear_25_514" x1="45.3647" y1="206.896" x2="49.2615" y2="206.869" gradientUnits="userSpaceOnUse">
<stop stop-color="#487BFF"/>
<stop offset="1" stop-color="#4627FF"/>
</linearGradient>
<linearGradient id="paint129_linear_25_514" x1="52.0757" y1="204.868" x2="55.4748" y2="204.852" gradientUnits="userSpaceOnUse">
<stop stop-color="#487BFF"/>
<stop offset="1" stop-color="#4627FF"/>
</linearGradient>
<linearGradient id="paint130_linear_25_514" x1="57.0162" y1="200.623" x2="61.8293" y2="200.602" gradientUnits="userSpaceOnUse">
<stop stop-color="#487BFF"/>
<stop offset="1" stop-color="#4627FF"/>
</linearGradient>
<linearGradient id="paint131_linear_25_514" x1="62.5388" y1="199.461" x2="67.0386" y2="199.445" gradientUnits="userSpaceOnUse">
<stop stop-color="#487BFF"/>
<stop offset="1" stop-color="#4627FF"/>
</linearGradient>
<linearGradient id="paint132_linear_25_514" x1="68.4845" y1="194.756" x2="73.2118" y2="194.74" gradientUnits="userSpaceOnUse">
<stop stop-color="#487BFF"/>
<stop offset="1" stop-color="#4627FF"/>
</linearGradient>
<linearGradient id="paint133_linear_25_514" x1="74.8929" y1="193.189" x2="79.6947" y2="193.175" gradientUnits="userSpaceOnUse">
<stop stop-color="#487BFF"/>
<stop offset="1" stop-color="#4627FF"/>
</linearGradient>
<linearGradient id="paint134_linear_25_514" x1="83.6229" y1="193.587" x2="86.53" y2="193.582" gradientUnits="userSpaceOnUse">
<stop stop-color="#487BFF"/>
<stop offset="1" stop-color="#4627FF"/>
</linearGradient>
<linearGradient id="paint135_linear_25_514" x1="91.2831" y1="183.772" x2="93.2332" y2="183.77" gradientUnits="userSpaceOnUse">
<stop stop-color="#487BFF"/>
<stop offset="1" stop-color="#4627FF"/>
</linearGradient>
<linearGradient id="paint136_linear_25_514" x1="133.799" y1="124.831" x2="179.491" y2="124.036" gradientUnits="userSpaceOnUse">
<stop stop-color="#487BFF"/>
<stop offset="1" stop-color="#4627FF"/>
</linearGradient>
<linearGradient id="paint137_linear_25_514" x1="60.9789" y1="209.766" x2="135.789" y2="208.111" gradientUnits="userSpaceOnUse">
<stop stop-color="#487BFF"/>
<stop offset="1" stop-color="#4627FF"/>
</linearGradient>
<linearGradient id="paint138_linear_25_514" x1="74.2103" y1="200.196" x2="104.334" y2="199.634" gradientUnits="userSpaceOnUse">
<stop stop-color="#487BFF"/>
<stop offset="1" stop-color="#4627FF"/>
</linearGradient>
<linearGradient id="paint139_linear_25_514" x1="81.8746" y1="174.679" x2="97.7116" y2="174.328" gradientUnits="userSpaceOnUse">
<stop stop-color="#487BFF"/>
<stop offset="1" stop-color="#4627FF"/>
</linearGradient>
<linearGradient id="paint140_linear_25_514" x1="69.4334" y1="177.458" x2="84.4937" y2="176.871" gradientUnits="userSpaceOnUse">
<stop stop-color="#487BFF"/>
<stop offset="1" stop-color="#4627FF"/>
</linearGradient>
<linearGradient id="paint141_linear_25_514" x1="184.41" y1="187.773" x2="197.997" y2="187.593" gradientUnits="userSpaceOnUse">
<stop stop-color="#487BFF"/>
<stop offset="1" stop-color="#4627FF"/>
</linearGradient>
<linearGradient id="paint142_linear_25_514" x1="186.73" y1="174.157" x2="208.111" y2="173.464" gradientUnits="userSpaceOnUse">
<stop stop-color="#487BFF"/>
<stop offset="1" stop-color="#4627FF"/>
</linearGradient>
<linearGradient id="paint143_linear_25_514" x1="197.729" y1="200.612" x2="227.469" y2="199.281" gradientUnits="userSpaceOnUse">
<stop stop-color="#487BFF"/>
<stop offset="1" stop-color="#4627FF"/>
</linearGradient>
<linearGradient id="paint144_linear_25_514" x1="177.343" y1="200.736" x2="234.336" y2="199.691" gradientUnits="userSpaceOnUse">
<stop stop-color="#487BFF"/>
<stop offset="1" stop-color="#4627FF"/>
</linearGradient>
<linearGradient id="paint145_linear_25_514" x1="93.8541" y1="155.797" x2="97.4155" y2="155.779" gradientUnits="userSpaceOnUse">
<stop stop-color="#487BFF"/>
<stop offset="1" stop-color="#4627FF"/>
</linearGradient>
<linearGradient id="paint146_linear_25_514" x1="116.414" y1="139.746" x2="189.814" y2="114.251" gradientUnits="userSpaceOnUse">
<stop stop-color="#487BFF"/>
<stop offset="1" stop-color="#4627FF"/>
</linearGradient>
<linearGradient id="paint147_linear_25_514" x1="188.709" y1="157.082" x2="191.706" y2="157.068" gradientUnits="userSpaceOnUse">
<stop stop-color="#487BFF"/>
<stop offset="1" stop-color="#4627FF"/>
</linearGradient>
<linearGradient id="paint148_linear_25_514" x1="91.2109" y1="246.337" x2="99.8177" y2="246.308" gradientUnits="userSpaceOnUse">
<stop stop-color="#487BFF"/>
<stop offset="1" stop-color="#4627FF"/>
</linearGradient>
<linearGradient id="paint149_linear_25_514" x1="113.586" y1="248.003" x2="187.555" y2="218.319" gradientUnits="userSpaceOnUse">
<stop stop-color="#487BFF"/>
<stop offset="1" stop-color="#4627FF"/>
</linearGradient>
<linearGradient id="paint150_linear_25_514" x1="190.47" y1="248.139" x2="193.962" y2="248.134" gradientUnits="userSpaceOnUse">
<stop stop-color="#487BFF"/>
<stop offset="1" stop-color="#4627FF"/>
</linearGradient>
<linearGradient id="paint151_linear_25_514" x1="123.688" y1="158.407" x2="172.222" y2="145.748" gradientUnits="userSpaceOnUse">
<stop stop-color="#487BFF"/>
<stop offset="1" stop-color="#4627FF"/>
</linearGradient>
<linearGradient id="paint152_linear_25_514" x1="118.838" y1="165.236" x2="152.67" y2="159.052" gradientUnits="userSpaceOnUse">
<stop stop-color="#487BFF"/>
<stop offset="1" stop-color="#4627FF"/>
</linearGradient>
<linearGradient id="paint153_linear_25_514" x1="167.817" y1="238.179" x2="187.958" y2="237.628" gradientUnits="userSpaceOnUse">
<stop stop-color="#487BFF"/>
<stop offset="1" stop-color="#4627FF"/>
</linearGradient>
<linearGradient id="paint154_linear_25_514" x1="171.022" y1="234.469" x2="183.485" y2="234.14" gradientUnits="userSpaceOnUse">
<stop stop-color="#487BFF"/>
<stop offset="1" stop-color="#4627FF"/>
</linearGradient>
<linearGradient id="paint155_linear_25_514" x1="122.901" y1="175.778" x2="161.038" y2="166.622" gradientUnits="userSpaceOnUse">
<stop stop-color="#487BFF"/>
<stop offset="1" stop-color="#4627FF"/>
</linearGradient>
<linearGradient id="paint156_linear_25_514" x1="121.919" y1="199.094" x2="172.174" y2="182.177" gradientUnits="userSpaceOnUse">
<stop stop-color="#487BFF"/>
<stop offset="1" stop-color="#4627FF"/>
</linearGradient>
<linearGradient id="paint157_linear_25_514" x1="140.398" y1="206.818" x2="171.596" y2="200.141" gradientUnits="userSpaceOnUse">
<stop stop-color="#487BFF"/>
<stop offset="1" stop-color="#4627FF"/>
</linearGradient>
<linearGradient id="paint158_linear_25_514" x1="149.979" y1="212.802" x2="170.984" y2="208.829" gradientUnits="userSpaceOnUse">
<stop stop-color="#487BFF"/>
<stop offset="1" stop-color="#4627FF"/>
</linearGradient>
<linearGradient id="paint159_linear_25_514" x1="115.686" y1="232.119" x2="162.381" y2="222.526" gradientUnits="userSpaceOnUse">
<stop stop-color="#487BFF"/>
<stop offset="1" stop-color="#4627FF"/>
</linearGradient>
<linearGradient id="paint160_linear_25_514" x1="143.024" y1="237.489" x2="159.536" y2="235.689" gradientUnits="userSpaceOnUse">
<stop stop-color="#487BFF"/>
<stop offset="1" stop-color="#4627FF"/>
</linearGradient>
</defs>
</svg>
