<svg width="133" height="99" viewBox="0 0 133 99" fill="none" xmlns="http://www.w3.org/2000/svg">
<g clip-path="url(#clip0_25_2727)">
<path d="M66.5333 6.70312C69.126 6.70328 71.6298 7.64769 73.5767 9.35979L74.09 9.84313L76.4167 12.1698C77.0552 12.8042 77.889 13.2046 78.7833 13.3065L79.2333 13.3331H82.5667C85.2907 13.333 87.9116 14.375 89.8919 16.2456C91.8722 18.1162 93.0617 20.6735 93.2167 23.3931L93.2333 23.9998V27.3331C93.2333 28.2331 93.54 29.1098 94.0933 29.8098L94.3933 30.1431L96.7167 32.4698C98.6424 34.3846 99.7653 36.9619 99.8563 39.676C99.9474 42.3902 98.9997 45.0369 97.2067 47.0765L96.7233 47.5898L94.3967 49.9165C93.7623 50.555 93.3618 51.3888 93.26 52.2831L93.2333 52.7331V56.0665C93.2335 58.7905 92.1914 61.4114 90.3209 63.3917C88.4503 65.372 85.893 66.5615 83.1733 66.7165L82.5667 66.7331H79.2333C78.3346 66.7334 77.4622 67.0364 76.7567 67.5931L76.4233 67.8931L74.0967 70.2165C72.1819 72.1422 69.6046 73.2651 66.8904 73.3561C64.1763 73.4472 61.5296 72.4995 59.49 70.7065L58.9767 70.2231L56.65 67.8965C56.0115 67.2621 55.1776 66.8616 54.2833 66.7598L53.8333 66.7331H50.5C47.7759 66.7333 45.1551 65.6912 43.1748 63.8207C41.1945 61.9501 40.0049 59.3928 39.85 56.6731L39.8333 56.0665V52.7331C39.833 51.8344 39.5301 50.962 38.9733 50.2565L38.6733 49.9231L36.35 47.5965C34.4243 45.6816 33.3014 43.1044 33.2104 40.3902C33.1193 37.6761 34.0669 35.0294 35.86 32.9898L36.3433 32.4765L38.67 30.1498C39.3044 29.5113 39.7048 28.6774 39.8067 27.7831L39.8333 27.3331V23.9998L39.85 23.3931C39.9988 20.7779 41.1048 18.309 42.957 16.4568C44.8092 14.6045 47.2782 13.4986 49.8933 13.3498L50.5 13.3331H53.8333C54.7321 13.3328 55.6045 13.0299 56.31 12.4731L56.6433 12.1731L58.97 9.84979C59.9611 8.85275 61.1396 8.06148 62.4376 7.52146C63.7356 6.98144 65.1275 6.70333 66.5333 6.70312ZM78.8567 30.9765C78.2316 30.3516 77.3839 30.0005 76.5 30.0005C75.6161 30.0005 74.7684 30.3516 74.1433 30.9765L63.1667 41.9498L58.8567 37.6431L58.5433 37.3665C57.8734 36.8484 57.0313 36.6048 56.1883 36.6851C55.3452 36.7654 54.5643 37.1636 54.0042 37.7989C53.4441 38.4341 53.1467 39.2587 53.1726 40.1052C53.1984 40.9517 53.5455 41.7566 54.1433 42.3565L60.81 49.0231L61.1233 49.2998C61.7647 49.7973 62.5655 50.0437 63.3756 49.9928C64.1857 49.9418 64.9494 49.597 65.5233 49.0231L78.8567 35.6898L79.1333 35.3765C79.6308 34.7351 79.8772 33.9343 79.8263 33.1242C79.7754 32.3141 79.4306 31.5504 78.8567 30.9765Z" fill="white"/>
</g>
<path d="M36.343 87H34.9339C34.8506 86.5947 34.7048 86.2386 34.4964 85.9318C34.2919 85.625 34.0419 85.3674 33.7464 85.1591C33.4548 84.947 33.1309 84.7879 32.7749 84.6818C32.4188 84.5758 32.0476 84.5227 31.6612 84.5227C30.9567 84.5227 30.3184 84.7008 29.7464 85.0568C29.1783 85.4129 28.7256 85.9375 28.3885 86.6307C28.0552 87.3239 27.8885 88.1742 27.8885 89.1818C27.8885 90.1894 28.0552 91.0398 28.3885 91.733C28.7256 92.4261 29.1783 92.9508 29.7464 93.3068C30.3184 93.6629 30.9567 93.8409 31.6612 93.8409C32.0476 93.8409 32.4188 93.7879 32.7749 93.6818C33.1309 93.5758 33.4548 93.4186 33.7464 93.2102C34.0419 92.9981 34.2919 92.7386 34.4964 92.4318C34.7048 92.1212 34.8506 91.7652 34.9339 91.3636H36.343C36.237 91.9583 36.0438 92.4905 35.7635 92.9602C35.4832 93.4299 35.1347 93.8295 34.718 94.1591C34.3014 94.4848 33.8336 94.733 33.3146 94.9034C32.7995 95.0739 32.2483 95.1591 31.6612 95.1591C30.6688 95.1591 29.7862 94.9167 29.0135 94.4318C28.2408 93.947 27.6328 93.2576 27.1896 92.3636C26.7464 91.4697 26.5249 90.4091 26.5249 89.1818C26.5249 87.9545 26.7464 86.8939 27.1896 86C27.6328 85.1061 28.2408 84.4167 29.0135 83.9318C29.7862 83.447 30.6688 83.2045 31.6612 83.2045C32.2483 83.2045 32.7995 83.2898 33.3146 83.4602C33.8336 83.6307 34.3014 83.8807 34.718 84.2102C35.1347 84.536 35.4832 84.9337 35.7635 85.4034C36.0438 85.8693 36.237 86.4015 36.343 87ZM41.9837 95.1818C41.1958 95.1818 40.5045 94.9943 39.9098 94.6193C39.3189 94.2443 38.8568 93.7197 38.5234 93.0455C38.1939 92.3712 38.0291 91.5833 38.0291 90.6818C38.0291 89.7727 38.1939 88.9792 38.5234 88.3011C38.8568 87.6231 39.3189 87.0966 39.9098 86.7216C40.5045 86.3466 41.1958 86.1591 41.9837 86.1591C42.7715 86.1591 43.4609 86.3466 44.0518 86.7216C44.6465 87.0966 45.1087 87.6231 45.4382 88.3011C45.7715 88.9792 45.9382 89.7727 45.9382 90.6818C45.9382 91.5833 45.7715 92.3712 45.4382 93.0455C45.1087 93.7197 44.6465 94.2443 44.0518 94.6193C43.4609 94.9943 42.7715 95.1818 41.9837 95.1818ZM41.9837 93.9773C42.5821 93.9773 43.0746 93.8239 43.4609 93.517C43.8473 93.2102 44.1333 92.8068 44.3189 92.3068C44.5045 91.8068 44.5973 91.2652 44.5973 90.6818C44.5973 90.0985 44.5045 89.5549 44.3189 89.0511C44.1333 88.5473 43.8473 88.1402 43.4609 87.8295C43.0746 87.5189 42.5821 87.3636 41.9837 87.3636C41.3852 87.3636 40.8928 87.5189 40.5064 87.8295C40.12 88.1402 39.834 88.5473 39.6484 89.0511C39.4628 89.5549 39.37 90.0985 39.37 90.6818C39.37 91.2652 39.4628 91.8068 39.6484 92.3068C39.834 92.8068 40.12 93.2102 40.5064 93.517C40.8928 93.8239 41.3852 93.9773 41.9837 93.9773ZM47.9851 95V86.2727H49.2805V87.6364H49.3942C49.576 87.1705 49.8696 86.8087 50.2749 86.5511C50.6802 86.2898 51.1669 86.1591 51.7351 86.1591C52.3108 86.1591 52.79 86.2898 53.1726 86.5511C53.5589 86.8087 53.8601 87.1705 54.076 87.6364H54.1669C54.3904 87.1856 54.7256 86.8277 55.1726 86.5625C55.6196 86.2936 56.1555 86.1591 56.7805 86.1591C57.5608 86.1591 58.1991 86.4034 58.6953 86.892C59.1915 87.3769 59.4396 88.1326 59.4396 89.1591V95H58.0987V89.1591C58.0987 88.5152 57.9226 88.0549 57.5703 87.7784C57.218 87.5019 56.8033 87.3636 56.326 87.3636C55.7124 87.3636 55.237 87.5492 54.8999 87.9205C54.5627 88.2879 54.3942 88.7538 54.3942 89.3182V95H53.0305V89.0227C53.0305 88.5265 52.8696 88.1269 52.5476 87.8239C52.2256 87.517 51.8108 87.3636 51.3033 87.3636C50.9548 87.3636 50.629 87.4564 50.326 87.642C50.0268 87.8277 49.7843 88.0852 49.5987 88.4148C49.4169 88.7405 49.326 89.1174 49.326 89.5455V95H47.9851ZM61.8913 98.2727V86.2727H63.1868V87.6591H63.3459C63.4444 87.5076 63.5807 87.3144 63.755 87.0795C63.933 86.8409 64.1868 86.6288 64.5163 86.4432C64.8497 86.2538 65.3004 86.1591 65.8686 86.1591C66.6035 86.1591 67.2512 86.3428 67.8118 86.7102C68.3724 87.0777 68.8099 87.5985 69.1243 88.2727C69.4387 88.947 69.5959 89.7424 69.5959 90.6591C69.5959 91.5833 69.4387 92.3845 69.1243 93.0625C68.8099 93.7367 68.3743 94.2595 67.8175 94.6307C67.2607 94.9981 66.6186 95.1818 65.8913 95.1818C65.3307 95.1818 64.8819 95.089 64.5447 94.9034C64.2076 94.714 63.9482 94.5 63.7663 94.2614C63.5845 94.0189 63.4444 93.8182 63.3459 93.6591H63.2322V98.2727H61.8913ZM63.2095 90.6364C63.2095 91.2955 63.3061 91.8769 63.4993 92.3807C63.6925 92.8807 63.9747 93.2727 64.3459 93.5568C64.7171 93.8371 65.1716 93.9773 65.7095 93.9773C66.2701 93.9773 66.7379 93.8295 67.1129 93.5341C67.4917 93.2348 67.7758 92.8333 67.9652 92.3295C68.1584 91.822 68.255 91.2576 68.255 90.6364C68.255 90.0227 68.1603 89.4697 67.9709 88.9773C67.7853 88.4811 67.5031 88.089 67.1243 87.8011C66.7493 87.5095 66.2777 87.3636 65.7095 87.3636C65.1641 87.3636 64.7057 87.5019 64.3345 87.7784C63.9633 88.0511 63.683 88.4337 63.4936 88.9261C63.3042 89.4148 63.2095 89.9848 63.2095 90.6364ZM72.9822 83.3636V95H71.6413V83.3636H72.9822ZM75.4382 95V86.2727H76.7791V95H75.4382ZM76.12 84.8182C75.8587 84.8182 75.6333 84.7292 75.4439 84.5511C75.2583 84.3731 75.1655 84.1591 75.1655 83.9091C75.1655 83.6591 75.2583 83.4451 75.4439 83.267C75.6333 83.089 75.8587 83 76.12 83C76.3814 83 76.6049 83.089 76.7905 83.267C76.9799 83.4451 77.0746 83.6591 77.0746 83.9091C77.0746 84.1591 76.9799 84.3731 76.7905 84.5511C76.6049 84.7292 76.3814 84.8182 76.12 84.8182ZM83.0305 86.2727V87.4091H78.5078V86.2727H83.0305ZM79.826 84.1818H81.1669V92.5C81.1669 92.8788 81.2218 93.1629 81.3317 93.3523C81.4453 93.5379 81.5893 93.6629 81.7635 93.7273C81.9415 93.7879 82.129 93.8182 82.326 93.8182C82.4737 93.8182 82.5949 93.8106 82.6896 93.7955C82.7843 93.7765 82.8601 93.7614 82.9169 93.75L83.1896 94.9545C83.0987 94.9886 82.9718 95.0227 82.8089 95.0568C82.6461 95.0947 82.4396 95.1136 82.1896 95.1136C81.8108 95.1136 81.4396 95.0322 81.076 94.8693C80.7161 94.7064 80.4169 94.4583 80.1783 94.125C79.9434 93.7917 79.826 93.3712 79.826 92.8636V84.1818ZM88.6129 95.1818C87.772 95.1818 87.0466 94.9962 86.4368 94.625C85.8307 94.25 85.3629 93.7273 85.0334 93.0568C84.7076 92.3826 84.5447 91.5985 84.5447 90.7045C84.5447 89.8106 84.7076 89.0227 85.0334 88.3409C85.3629 87.6553 85.8213 87.1212 86.4084 86.7386C86.9993 86.3523 87.6887 86.1591 88.4766 86.1591C88.9311 86.1591 89.38 86.2348 89.8232 86.3864C90.2663 86.5379 90.6697 86.7841 91.0334 87.125C91.397 87.4621 91.6868 87.9091 91.9027 88.4659C92.1186 89.0227 92.2266 89.7083 92.2266 90.5227V91.0909H85.4993V89.9318H90.8629C90.8629 89.4394 90.7644 89 90.5675 88.6136C90.3743 88.2273 90.0978 87.9223 89.7379 87.6989C89.3819 87.4754 88.9614 87.3636 88.4766 87.3636C87.9425 87.3636 87.4804 87.4962 87.0902 87.7614C86.7038 88.0227 86.4065 88.3636 86.1982 88.7841C85.9898 89.2045 85.8857 89.6553 85.8857 90.1364V90.9091C85.8857 91.5682 85.9993 92.1269 86.2266 92.5852C86.4576 93.0398 86.7777 93.3864 87.1868 93.625C87.5959 93.8598 88.0713 93.9773 88.6129 93.9773C88.9652 93.9773 89.2834 93.928 89.5675 93.8295C89.8554 93.7273 90.1035 93.5758 90.3118 93.375C90.5201 93.1705 90.6811 92.9167 90.7947 92.6136L92.0902 92.9773C91.9538 93.4167 91.7247 93.803 91.4027 94.1364C91.0807 94.4659 90.683 94.7235 90.2095 94.9091C89.736 95.0909 89.2038 95.1818 88.6129 95.1818ZM97.5618 95.1818C96.8345 95.1818 96.1925 94.9981 95.6357 94.6307C95.0788 94.2595 94.6432 93.7367 94.3288 93.0625C94.0144 92.3845 93.8572 91.5833 93.8572 90.6591C93.8572 89.7424 94.0144 88.947 94.3288 88.2727C94.6432 87.5985 95.0807 87.0777 95.6413 86.7102C96.2019 86.3428 96.8497 86.1591 97.5845 86.1591C98.1527 86.1591 98.6016 86.2538 98.9311 86.4432C99.2644 86.6288 99.5182 86.8409 99.6925 87.0795C99.8705 87.3144 100.009 87.5076 100.107 87.6591H100.221V83.3636H101.562V95H100.266V93.6591H100.107C100.009 93.8182 99.8686 94.0189 99.6868 94.2614C99.505 94.5 99.2455 94.714 98.9084 94.9034C98.5713 95.089 98.1224 95.1818 97.5618 95.1818ZM97.7436 93.9773C98.2815 93.9773 98.736 93.8371 99.1072 93.5568C99.4785 93.2727 99.7607 92.8807 99.9538 92.3807C100.147 91.8769 100.244 91.2955 100.244 90.6364C100.244 89.9848 100.149 89.4148 99.9595 88.9261C99.7701 88.4337 99.4898 88.0511 99.1186 87.7784C98.7474 87.5019 98.2891 87.3636 97.7436 87.3636C97.1754 87.3636 96.7019 87.5095 96.3232 87.8011C95.9482 88.089 95.666 88.4811 95.4766 88.9773C95.291 89.4697 95.1982 90.0227 95.1982 90.6364C95.1982 91.2576 95.2929 91.822 95.4822 92.3295C95.6754 92.8333 95.9595 93.2348 96.3345 93.5341C96.7133 93.8295 97.183 93.9773 97.7436 93.9773ZM105.977 83.3636L105.863 91.7273H104.545L104.431 83.3636H105.977ZM105.204 95.0909C104.924 95.0909 104.683 94.9905 104.482 94.7898C104.281 94.589 104.181 94.3485 104.181 94.0682C104.181 93.7879 104.281 93.5473 104.482 93.3466C104.683 93.1458 104.924 93.0455 105.204 93.0455C105.484 93.0455 105.725 93.1458 105.925 93.3466C106.126 93.5473 106.227 93.7879 106.227 94.0682C106.227 94.2538 106.179 94.4242 106.085 94.5795C105.994 94.7348 105.871 94.8598 105.715 94.9545C105.564 95.0455 105.393 95.0909 105.204 95.0909Z" fill="white"/>
<defs>
<clipPath id="clip0_25_2727">
<rect width="80" height="80" fill="white" transform="translate(26.5)"/>
</clipPath>
</defs>
</svg>
