<svg width="395" height="471" viewBox="0 0 395 471" fill="none" xmlns="http://www.w3.org/2000/svg">
<path fill-rule="evenodd" clip-rule="evenodd" d="M377.204 64.5777L379.935 65.6197L391.344 56.1331L393.914 57.7567C393.7 63.687 390.824 69.2538 386.292 72.9606L385.386 78.7804L385.391 78.7846L385.385 78.7907L383.918 88.2146C377.192 105.514 369.261 122.323 360.228 138.51L362.265 137.733C363.758 144.203 364.729 150.742 365.201 157.352C366.637 180.378 361.684 203.779 350.826 224.15L352.087 224.76L349.113 228.668L349.456 229.166L349.222 230.49L347.299 231.837L347.013 231.429L341.459 238.728C334.536 245.667 326.428 251.238 318.373 256.773L318.372 256.773L318.365 256.778L318.357 256.783L318.35 256.788C317.493 257.377 316.636 257.966 315.782 258.556C305.34 265.778 294.868 273.016 284.398 280.205L281.834 279.022C281.032 273.947 282.261 269.157 283.497 264.341C284.245 261.425 284.996 258.499 285.299 255.494L278.91 240.996C274.675 244.85 270.359 248.615 265.964 252.286L266.201 252.398C260.328 262.084 249.419 268.402 238.032 268.463C226.308 268.577 216.188 261.923 207.718 254.41C200.88 248.274 194.31 241.774 187.742 235.277C184.743 232.31 181.744 229.343 178.721 226.412C178.169 225.872 177.615 225.332 177.06 224.789L177.06 224.789C172.484 220.321 167.811 215.759 163.371 210.982C160.638 212.729 157.244 213.777 154.164 214.728L154.163 214.728L154.162 214.728C153.219 215.019 152.306 215.301 151.451 215.591C143.975 218.044 136.536 220.543 129.08 223.048L129.079 223.048L126.736 223.836L125.581 220.664C128.959 219.542 132.332 218.413 135.705 217.284C139.922 215.872 144.139 214.461 148.365 213.061L158.61 209.56L160.58 207.91C151.558 197.744 143.858 186.533 140.482 173.189L141.821 172.706L141.088 172.077L149.552 164.178C160.085 154.603 171.165 145.641 182.707 137.316C179.406 130.311 174.192 124.253 167.948 119.743L157.955 114.226L152.5 112.449L147.184 111.267L144.353 104.449L148.109 101.085L153.737 97.5353C158.956 94.3218 164.137 91.0772 169.305 87.8402L169.305 87.8401L169.307 87.8389L169.313 87.8352C171.493 86.4699 173.671 85.1059 175.848 83.7462C178.59 82.0365 181.322 80.2937 184.058 78.5487L184.058 78.5486L184.058 78.5485L184.058 78.5484L184.058 78.5483L184.059 78.5482L184.059 78.5481L184.059 78.548L184.059 78.5479L184.059 78.5478L184.059 78.5477L184.06 78.5476L184.06 78.5475L184.06 78.5474L184.06 78.5473L184.06 78.5472L184.06 78.547L184.06 78.5469L184.061 78.5468L184.061 78.5467L184.061 78.5466L184.061 78.5465L184.061 78.5464L184.061 78.5463L184.062 78.5462L184.062 78.5461L184.062 78.546L184.062 78.5459L184.062 78.5458L184.062 78.5457L184.063 78.5456L184.063 78.5455L184.063 78.5454L184.063 78.5453L184.063 78.5452L184.063 78.5451L184.063 78.545C194.535 71.8659 205.056 65.1544 216.335 60.1349C222.834 57.2542 229.623 55.0237 236.649 54.0542C244.4 53.0035 252.157 53.7722 259.673 55.9125C267.657 58.1632 275.269 61.5745 282.764 65.0975C289.172 68.1083 295.469 71.7474 299.612 77.5636L296.873 79.5051C292.287 73.1163 285.067 69.7741 278.136 66.6501C269.865 62.9067 261.459 59.216 252.475 57.6598C238.43 55.2112 224.762 59.4402 212.303 65.7356L194.265 76.2164L173.233 89.2971L154.49 101.054C159.795 101.208 164.934 102.961 169.327 106.025L167.157 108.61L150.107 104.677L150.035 104.015L147.457 105.847L149.065 108.304L158.411 110.851C170.093 115.244 179.89 124.182 185.47 135.342C186.759 134.429 188.053 133.525 189.353 132.629C187.41 125.29 184.094 118.344 179.679 112.149L182.417 110.214C186.855 116.45 190.17 123.339 192.253 130.647C193.748 129.636 195.249 128.635 196.758 127.645L195.295 127.777L191.701 110.786L194.995 110.475L198.462 126.532C200.775 125.031 203.104 123.554 205.448 122.101L203.279 122.329L200.295 108.197L203.617 107.884L206.465 121.473C213.647 117.053 220.971 112.863 228.42 108.907C256.799 93.8266 287.014 82.2046 318.26 74.4568C333.68 70.6481 349.3 67.7177 365.081 65.8468L371.855 65.1377L373.28 63.9408L373.971 64.9161L376.315 64.6708L376.543 64.4607L376.739 64.6263L377.204 64.5777ZM144.098 173.831C158.449 160.08 173.874 147.475 190.168 136.128L190.185 136.211L193.53 135.929C193.407 135.311 193.275 134.696 193.135 134.083C201.445 128.41 209.975 123.062 218.698 118.054C245.8 102.476 274.799 90.201 304.82 81.5337C319.872 77.1654 335.18 73.7133 350.663 71.2463C353.019 70.8678 355.383 70.511 357.751 70.177C362.408 78.7379 369.741 85.5138 378.748 89.2888L380.186 86.2264C379.57 85.9688 378.961 85.6961 378.36 85.4086L380.073 83.7947L380.462 84.1774L382.039 84.0349C379.812 90.1002 377.219 96.0689 374.64 101.954C371.297 109.613 367.721 117.091 363.995 124.515C356.233 139.497 347.602 154.033 338.078 167.945C319.302 195.412 297.113 220.62 272.113 242.608L262.609 250.678L262.998 251.226C257.971 259.315 248.864 264.497 239.386 265.086C228.189 265.808 218.412 259.347 210.362 252.215C203.647 246.336 197.306 240.042 190.965 233.748L190.965 233.748L190.965 233.748L190.964 233.748L190.964 233.747L190.964 233.747L190.964 233.747L190.964 233.747L190.963 233.747L190.963 233.747L190.963 233.746L190.963 233.746L190.963 233.746L190.962 233.746L190.962 233.746L190.962 233.746L190.962 233.745L190.962 233.745L190.961 233.745L190.961 233.745L190.961 233.745L190.961 233.744L190.961 233.744L190.96 233.744L190.96 233.744L190.96 233.744L190.96 233.744L190.96 233.743L190.959 233.743L190.959 233.743L190.959 233.743L190.959 233.743L190.959 233.743L190.958 233.742L190.958 233.742L190.958 233.742L190.958 233.742L190.958 233.742L190.957 233.742L190.957 233.741L190.957 233.741L190.957 233.741L190.957 233.741L190.956 233.741L190.956 233.74L190.956 233.74L190.956 233.74L190.956 233.74C188.398 231.202 185.841 228.664 183.26 226.153C182.514 225.429 181.767 224.705 181.02 223.981L181.019 223.98C175.914 219.033 170.797 214.074 165.957 208.864C166.784 207.976 167.463 206.954 167.939 205.764L164.838 204.346L163.142 205.765C162.157 204.654 161.185 203.531 160.232 202.392C153.14 193.892 147.141 184.489 144.098 173.831ZM281.867 238.278C286.925 241.274 288.817 247.689 288.752 253.379C288.705 257.135 287.766 260.771 286.831 264.396C285.855 268.178 284.882 271.948 284.926 275.831L299.862 265.516C302.628 263.599 305.412 261.703 308.197 259.806L308.197 259.806L308.198 259.805L308.198 259.805L308.199 259.805L308.2 259.804L308.2 259.804L308.201 259.803L308.202 259.803L308.202 259.803L308.203 259.802L308.203 259.802L308.204 259.801L308.205 259.801L308.205 259.801L308.206 259.8L308.207 259.8L308.207 259.799L308.208 259.799L308.208 259.799L308.209 259.798L308.21 259.798L308.21 259.797L308.211 259.797L308.212 259.797L308.212 259.796L308.213 259.796C314.999 255.174 321.791 250.548 328.353 245.613C336.048 239.789 343.303 233.133 348.248 224.761L347.024 224.168C350.108 218.532 352.816 212.615 354.977 206.524C362.562 185.348 364.189 161.988 359.386 140.011C357.536 143.293 355.641 146.549 353.701 149.779L356.45 148.765C361.238 164.358 360.497 181.204 354.507 196.366L351.487 194.963C357.097 180.751 357.786 164.842 353.408 150.265C347.597 159.909 341.388 169.312 334.805 178.445C322.442 195.537 308.764 211.649 293.929 226.607C298.326 231.555 300.825 237.891 300.76 244.53L297.465 244.848L291.453 229.083C290.129 230.395 288.796 231.698 287.454 232.992C293.886 240.033 296.907 249.583 295.507 259.036L292.21 258.455C293.454 250.146 290.812 241.483 285.03 235.309C283.981 236.305 282.927 237.294 281.867 238.278ZM383.155 80.8914C383 81.3447 382.842 81.7975 382.682 82.2497L382.632 81.5923L382.524 81.4862L383.155 80.8914ZM381.585 69.7316L383.179 70.0298L382.762 70.7507L381.585 69.7316ZM380.559 74.9844L382.67 72.3812L384.016 74.2742L383.951 75.474L381.854 73.6738L380.559 74.9844ZM367.252 77.5164C367.566 77.8333 367.885 78.1448 368.209 78.4507L368.524 78.1062L367.773 77.0411L367.252 77.5164ZM366.523 69.6148L366.516 69.6035L363.366 70.7899L365.846 74.3074L365.024 75.0644C363.629 73.392 362.373 71.5982 361.275 69.6973C363.282 69.4342 365.292 69.1878 367.304 68.9591L366.523 69.6148ZM376.972 68.8688L372.435 73.8293L372.443 73.7843L371.861 73.3118L376.773 68.8315L376.972 68.8688ZM371.309 81.0882C371.11 80.9355 370.912 80.7809 370.715 80.6245L379.084 71.5009L371.309 81.0882ZM383.843 77.4749L383.903 76.3725L383.28 76.998L383.843 77.4749ZM317.412 101.865C309.689 102.668 304.126 110.728 300.967 117.241L300.155 124.126L300.002 124.252L300.12 124.421L299.421 130.351L304.398 137.159C303.862 137.486 303.323 137.811 302.783 138.133L304.694 140.887C305.34 140.501 305.984 140.111 306.624 139.716C307.902 140.575 309.252 141.261 310.644 141.771C309.975 142.254 309.307 142.736 308.638 143.219L310.557 145.926C312.01 144.872 313.466 143.82 314.923 142.769C319.266 143.23 323.711 142.066 327.443 139.186C333.743 134.313 337.197 125.83 335.595 117.927C334.448 112.103 331.129 107.085 326.641 103.419C326.881 103.306 327.121 103.195 327.362 103.084L326.206 99.9198C325.31 100.338 324.42 100.769 323.535 101.211C321.396 99.8939 319.08 98.8515 316.668 98.1272L316.086 101.424C316.532 101.558 316.974 101.705 317.412 101.865ZM320.01 139.114C322.981 138.361 325.738 136.64 327.919 134.157L328.077 133.331C326.482 134.476 324.887 135.619 323.292 136.762C322.198 137.546 321.103 138.33 320.01 139.114ZM328.992 128.536L330.195 122.235C323.784 127.904 316.956 133.088 309.755 137.742C310.009 137.879 310.269 138.01 310.533 138.134C311.691 138.693 312.873 139.079 314.058 139.303L314.812 138.759L314.822 138.751L314.832 138.744L314.843 138.736C319.549 135.335 324.255 131.933 328.992 128.536ZM329.461 118.482L330.598 120.122L331.478 115.515C330.574 113.041 329.191 110.769 327.467 108.781C318.646 114.147 310.176 120.161 302.149 126.794C302.248 127.913 302.498 129 302.88 130.037C311.178 123.727 319.471 117.441 327.763 111.16L329.644 113.888L328.535 114.735L328.505 114.757C320.499 120.872 312.51 126.973 304.476 133.082C305.133 134.024 305.909 134.893 306.787 135.672C314.812 130.581 322.385 124.824 329.461 118.482ZM302.655 122.093C309.786 116.374 317.237 111.085 325.02 106.343C324.488 105.884 323.935 105.447 323.365 105.035C317.101 108.278 311.22 112.217 305.788 116.689L302.655 122.093ZM320.068 103.021C319.987 102.98 319.906 102.939 319.825 102.899L319.775 103.182L319.899 103.114L320.068 103.021ZM226.085 169.995C230.283 162.481 238.517 152.933 247.826 153.677L247.815 153.554C260.104 150.984 272.051 160.113 274.482 172.085C276.721 183.333 271.189 194.793 261.721 200.961C256.544 204.349 249.855 206.551 243.345 206.586C241.756 207.636 240.178 208.704 238.61 209.789L236.691 207.082C237.162 206.757 237.633 206.434 238.106 206.113C236.048 205.714 234.058 205.054 232.196 204.099C231.559 204.437 230.922 204.773 230.284 205.109L229.065 201.982L229.152 201.937L227.529 198.88L226.669 199.407L224.78 196.684L225.975 195.951L224.009 192.249L222.853 190.653L223.078 190.495L221.806 188.099L226.085 169.995ZM263.358 195.509C259.646 198.881 254.761 201.4 249.621 202.558C254.75 199.364 259.992 196.337 265.356 193.466L263.467 190.743C256.248 194.587 249.232 198.768 242.405 203.241C240.21 203.151 238.045 202.775 235.981 202.073C247.819 195.684 259.471 188.876 270.84 181.614L268.876 178.85C257.008 186.478 244.827 193.643 232.298 200.284C231.187 199.551 230.214 198.699 229.373 197.75C238.738 192.012 248.082 186.267 257.436 180.514C261.978 177.722 266.523 174.927 271.074 172.131C273.014 180.576 269.789 189.702 263.358 195.509ZM270.177 169.201C270.536 170.13 270.826 171.075 271.05 172.028L269.192 169.383C261.103 174.348 253.015 179.323 244.926 184.299L244.828 184.359L244.788 184.384L244.748 184.408C238.984 187.954 233.219 191.5 227.455 195.041C226.979 194.19 226.579 193.294 226.252 192.365C239.885 182.865 254.14 174.222 268.864 166.441C269.371 167.318 269.812 168.24 270.177 169.201ZM266.916 163.667C252.595 171.235 238.765 179.665 225.385 188.893C225.064 186.839 225.04 184.701 225.288 182.583L226.112 183.746C237.342 175.136 249.689 168.09 262.82 162.763L261.574 159.631C248.895 164.809 236.82 171.572 225.786 179.746C226.05 178.62 226.39 177.512 226.802 176.44L229.078 173.086L229.661 173.921C236.752 168.122 244.752 163.68 253.375 160.77L252.215 157.626C245.426 159.928 239.002 163.13 233.114 167.142L236.985 161.439L251.118 157.975L251.815 156.504C257.611 156.51 263.203 159.249 266.916 163.667ZM121.174 214.467C132.725 211.502 143.836 207.115 154.242 201.363L156.119 204.111C145.628 209.91 134.467 214.447 122.83 217.45C123.109 224.289 125.137 230.883 128.016 237.079C133.155 235.825 138.064 233.801 142.602 231.092L144.536 233.83C139.842 236.656 134.797 238.774 129.52 240.138C130.087 241.235 130.678 242.317 131.286 243.385C131.537 243.822 131.79 244.256 132.046 244.688L140.935 241.143L142.15 244.29L133.829 247.58C136.837 252.283 140.23 256.73 143.959 260.874L144.582 259.495L147.456 258.643L149.592 259.647L148.589 261.783L145.748 262.64L145.457 262.504C146.499 263.615 147.567 264.702 148.657 265.765L153.141 262.642L155.11 265.386L151.174 268.138C151.623 268.548 152.076 268.953 152.532 269.355L158.068 266.367L159.983 269.101L155.245 271.661C156.457 272.657 157.693 273.625 158.95 274.565L165.648 268.902L167.557 271.663L161.722 276.567C162.201 276.901 162.682 277.23 163.166 277.556C163.815 277.992 164.47 278.421 165.13 278.842L173.401 271.71L175.293 274.413L168.107 280.665C170.721 282.203 173.413 283.624 176.167 284.922L173.793 282.913L184.728 267.201L187.256 269.34L176.387 285.025C179.006 286.252 181.679 287.368 184.395 288.37C187.976 289.676 194.664 291.705 198.31 289.249L197.51 288.565C202.754 280.584 207.379 272.131 211.164 263.334L210.908 263.339C204.991 271.622 199.738 280.373 195.294 289.532L192.274 288.129C196.983 278.406 202.56 269.164 208.885 260.451L208.848 260.057L209.178 260.05C209.659 259.39 210.145 258.733 210.635 258.08L212.836 259.965L213.493 259.95L215.191 262.367C211.625 271.064 207.23 279.401 202.204 287.366L203.433 287.944C200.624 295.857 189.948 293.898 183.933 291.744C167.852 286.024 153.348 276.145 141.834 263.532C137.669 258.959 133.915 254.057 130.637 248.843L130.392 248.939L129.97 247.767C128.914 246.039 127.909 244.278 126.959 242.483C126.686 241.958 126.417 241.43 126.152 240.899C125.619 241.003 125.085 241.099 124.548 241.187L124.266 237.849C124.401 237.826 124.537 237.803 124.672 237.779C121.634 231.027 119.507 223.846 119.394 216.362L121.793 216.152L121.174 214.467ZM123.153 257.57L126.987 256.692L127.155 253.406C108.95 250.927 90.8385 254.867 73.2131 258.858L71.663 260.222L78.976 268.45L90.3533 268.174C87.9716 269.368 85.4481 270.3 82.9258 271.231C77.6433 273.182 72.3659 275.13 68.4063 279.482C65.5413 282.609 63.7034 286.537 61.87 290.456C59.4306 295.671 56.9992 300.868 52.1672 304.136L53.6917 307.066C63.3241 303.917 72.8489 300.218 82.1059 295.953C73.9163 308.144 65.7007 320.298 57.486 332.446L59.3336 335.084C66.6316 331.39 73.6533 327.301 80.4377 322.825C76.0576 328.932 71.4899 334.877 66.6876 340.63L69.2612 342.826C76.0156 334.626 82.4083 326.146 88.3204 317.31L86.1088 314.879C78.9781 319.986 71.5648 324.706 63.8815 328.947C71.9916 316.937 80.1014 304.929 88.2085 292.936L86.3184 290.262C77.5467 294.531 68.5695 298.296 59.4126 301.571C61.352 298.87 62.8073 295.814 64.2654 292.753C66.0108 289.089 67.7602 285.416 70.3489 282.332C74.1622 277.813 79.561 275.839 84.9907 273.854L84.991 273.854C89.267 272.291 93.5622 270.72 97.1174 267.894L96.8611 265.042L82.3247 265.342L76.2037 261.567C91.5477 258.125 107.271 254.871 123.044 256.303L123.153 257.57ZM110.671 314.299C98.0258 324.724 85.1798 334.924 72.2342 344.952L70.3247 342.191C85.6308 330.414 100.745 318.303 115.578 305.926L118.07 307.996C110.921 321.344 102.131 333.776 91.9183 344.951C101.612 338.999 110.538 331.864 118.482 323.715L121.239 325.539C118.169 332.486 114.292 339.07 109.741 345.132C123.096 339.147 131.27 325.011 138.125 312.626L141.301 313.618C139.979 322.888 137.402 331.938 133.652 340.504C139.034 334.386 142.666 326.795 145.821 319.312C146.058 318.752 146.295 318.191 146.534 317.627L146.536 317.623C151.21 306.58 156.213 294.76 155.131 282.554L158.48 282.253L156.556 300.117L151.074 315.285L145.65 327.83C141.713 335.976 136.681 343.693 129.279 349.082L126.794 346.979C130.928 339.338 134.051 331.25 136.107 322.858C128.809 334.953 119.544 346.621 105.471 350.13L103.624 347.491C107.511 342.869 110.956 337.925 113.917 332.692C104.685 340.902 94.4097 347.897 83.3782 353.501L81.5306 350.862C92.7926 339.962 102.602 327.688 110.671 314.299ZM129.167 256.945L132.898 258.933L134.327 255.925L130.597 253.93L129.167 256.945ZM54.5608 316.311C40.3265 325.289 27.9514 337.116 18.3864 350.944L20.9966 353.09C30.3903 339.483 42.4519 327.893 56.4704 319.072L54.5608 316.311ZM22.0039 400.153C31.2417 382.492 43.0383 366.201 56.9777 351.981L59.5088 354.141C41.7494 372.285 27.5777 393.709 17.7919 417.126L14.7215 415.693L22.0039 400.153ZM161.54 219.223C150.524 224.568 138.779 228.077 126.715 229.649L126.401 226.334C138.194 224.762 149.682 221.32 160.396 216.11L161.54 219.223ZM184.398 285.269C189.475 274.217 195.848 263.832 203.341 254.209L205.953 256.383C198.588 265.757 192.439 275.938 187.402 286.725L184.398 285.269ZM299.007 225.093L303.423 233.242L306.72 233.823L300.438 222.078L299.007 225.093ZM310.713 226.014L306.502 218.604L309.207 216.657L313.475 224.104L310.713 226.014ZM311.684 213.122L314.157 217.94L317.478 217.599L313.822 210.559L311.684 213.122ZM210.954 116.903L208.862 105.653L212.236 105.321L214.281 116.564L210.954 116.903ZM219.246 101.98L220.606 110.308L223.95 110.027L222.567 101.674L219.246 101.98ZM226.764 104.699L226.14 100.534L229.495 100.199L230.082 104.413L226.764 104.699ZM233.439 99.4538L234.3 102.274L236.437 103.271L237.414 101.13L236.561 98.2627L234.42 97.2861L233.439 99.4538ZM350.369 204.867L350.835 202.226L352.758 200.879L354.105 202.802L353.639 205.444L351.711 206.818L350.369 204.867ZM82.1377 80.7174C89.2769 78.9876 96.5071 77.65 103.824 76.7317L103.882 77.4255C105.436 76.856 106.991 76.2868 108.545 75.718L109.677 78.8576C104.231 80.8759 98.7541 82.8886 93.2628 84.9065L93.2548 84.9094C90.323 85.9867 87.3873 87.0655 84.4501 88.1475L73.1602 92.2803L62.5569 96.0744L56.6069 92.9562L61.1567 87.2239C67.7667 84.3071 75.1102 82.446 82.1377 80.7174ZM70.1342 89.8448C77.0551 87.2864 83.9747 84.7359 90.8918 82.1931C88.1619 82.7332 85.4439 83.3323 82.7319 83.985L64.7597 89.4684L60.8234 91.2475L61.0704 92.9282L65.4742 91.5799L70.1342 89.8448ZM108.362 145.726C100.405 143.48 92.0716 142.422 83.7458 142.584C83.5039 142.591 83.2212 142.596 82.9042 142.602L82.904 142.602C77.9555 142.694 64.6297 142.943 67.0648 150.148L68.7477 151.232C84.0908 151.137 99.3414 151.054 114.654 150.974L114.372 147.636C112.252 147.649 110.134 147.662 108.018 147.675L108.362 145.726ZM87.7854 145.909C92.7645 146.032 97.7111 146.657 102.532 147.708C93.8988 147.758 85.2845 147.804 76.6479 147.838L87.7854 145.909ZM71.7883 193.267C76.8516 195.632 81.9235 198 86.9764 200.384L86.2233 202.014C88.0646 202.981 89.8813 204.002 91.6731 205.079L90.2428 208.094C82.1974 203.269 73.5393 199.429 64.4748 196.828L51.4482 193.82L42.1503 188.67L42.2312 186.671C46.578 181.297 54.0928 184.909 59.3446 187.433C59.819 187.661 60.2748 187.88 60.7082 188.082C64.3898 189.811 68.0868 191.538 71.7883 193.267ZM64.4724 193.53C63.7303 193.182 62.9878 192.833 62.2449 192.484L52.0256 187.938L48.503 188.362L54.8617 191.134L64.4724 193.53Z" fill="url(#paint0_linear_25_842)"/>
<path d="M221.577 339.962C222.623 332.663 224.086 325.457 225.94 318.349C227.791 311.353 229.78 304.043 232.812 297.485L238.623 293.036L241.637 299.04L237.658 309.575L233.329 320.791C230.072 329.177 226.842 337.552 223.6 345.852L220.481 344.665C225.386 331.954 230.317 319.233 235.276 306.507L237.092 301.878L238.517 297.498L236.841 297.222L234.993 301.127L229.197 319.001C227.377 326.02 225.919 333.086 224.916 340.302L221.577 339.962Z" fill="url(#paint1_linear_25_842)"/>
<path d="M290.481 345.704C288.375 337.71 287.462 329.359 287.769 321.037C287.946 317.022 288.003 301.766 295.624 304.491L296.678 306.192C296.315 321.531 295.965 336.778 295.619 352.087L292.286 351.747C292.649 336.407 293.003 321.188 293.318 305.856L294.378 307.592L291.023 325.134C291.073 331.941 292.061 338.703 293.795 345.18L290.481 345.704Z" fill="url(#paint2_linear_25_842)"/>
<path d="M345.504 325.275C341.531 316.458 337.604 307.584 333.663 298.796C331.306 293.522 326.632 284.934 332.573 280.298L334.574 280.252L339.561 289.638L342.341 302.715C344.784 311.823 348.472 320.547 353.156 328.676L350.116 330.053C345.665 322.346 342.23 314.208 339.735 305.649L336.816 293.004L332.639 282.948L334.666 282.897L333.669 290.112L338.037 300.41C341.559 308.264 345.053 316.067 348.575 323.921L345.504 325.275Z" fill="url(#paint3_linear_25_842)"/>
<defs>
<linearGradient id="paint0_linear_25_842" x1="149.108" y1="13.4207" x2="416.93" y2="65.8068" gradientUnits="userSpaceOnUse">
<stop stop-color="#487BFF"/>
<stop offset="1" stop-color="#4627FF"/>
</linearGradient>
<linearGradient id="paint1_linear_25_842" x1="242.481" y1="304.372" x2="247.236" y2="345.737" gradientUnits="userSpaceOnUse">
<stop stop-color="#487BFF"/>
<stop offset="1" stop-color="#4627FF"/>
</linearGradient>
<linearGradient id="paint2_linear_25_842" x1="298.056" y1="314.89" x2="300.73" y2="354.498" gradientUnits="userSpaceOnUse">
<stop stop-color="#487BFF"/>
<stop offset="1" stop-color="#4627FF"/>
</linearGradient>
<linearGradient id="paint3_linear_25_842" x1="347.1" y1="290.441" x2="350.679" y2="333.581" gradientUnits="userSpaceOnUse">
<stop stop-color="#487BFF"/>
<stop offset="1" stop-color="#4627FF"/>
</linearGradient>
</defs>
</svg>
