<svg width="32" height="32" viewBox="0 0 32 32" fill="none" xmlns="http://www.w3.org/2000/svg">
<g clip-path="url(#clip0_1_345)">
<path d="M22.6667 10.6663V6.66634C22.6667 6.31272 22.5262 5.97358 22.2762 5.72353C22.0261 5.47348 21.687 5.33301 21.3334 5.33301H8.00004C7.2928 5.33301 6.61452 5.61396 6.11442 6.11406C5.61433 6.61415 5.33337 7.29243 5.33337 7.99967M5.33337 7.99967C5.33337 8.70692 5.61433 9.3852 6.11442 9.88529C6.61452 10.3854 7.2928 10.6663 8.00004 10.6663H24C24.3537 10.6663 24.6928 10.8068 24.9429 11.0569C25.1929 11.3069 25.3334 11.6461 25.3334 11.9997V15.9997M5.33337 7.99967V23.9997C5.33337 24.7069 5.61433 25.3852 6.11442 25.8853C6.61452 26.3854 7.2928 26.6663 8.00004 26.6663H24C24.3537 26.6663 24.6928 26.5259 24.9429 26.2758C25.1929 26.0258 25.3334 25.6866 25.3334 25.333V21.333" stroke="white" stroke-width="1.33333" stroke-linecap="round" stroke-linejoin="round"/>
<path d="M26.6666 16V21.3333H21.3333C20.626 21.3333 19.9478 21.0524 19.4477 20.5523C18.9476 20.0522 18.6666 19.3739 18.6666 18.6667C18.6666 17.9594 18.9476 17.2811 19.4477 16.781C19.9478 16.281 20.626 16 21.3333 16H26.6666Z" stroke="white" stroke-width="1.33333" stroke-linecap="round" stroke-linejoin="round"/>
</g>
<defs>
<clipPath id="clip0_1_345">
<rect width="32" height="32" fill="white"/>
</clipPath>
</defs>
</svg>
